<?xml version="1.0" encoding="iso-8859-1"?>
<!-- Generator: Adobe Illustrator 19.0.0, SVG Export Plug-In . SVG Version: 6.00 Build 0)  -->
<svg version="1.1" id="Layer_1" xmlns="http://www.w3.org/2000/svg" xmlns:xlink="http://www.w3.org/1999/xlink" x="0px" y="0px"
	 viewBox="0 0 512.003 512.003" style="enable-background:new 0 0 512.003 512.003;" xml:space="preserve">
<path style="fill:#F2D23D;" d="M465.861,188.626l-190.618,0.353c-0.015,0-0.03,0-0.043,0c-12.319,0.001-22.314-9.973-22.338-22.299
	c-0.024-12.339,9.961-22.361,22.297-22.382l74.309-0.139c0.091,0,0.18-0.001,0.274-0.001c12.281,0,22.276-9.959,22.276-22.201
	c-0.003-12.319-10.023-22.341-22.341-22.341h-74.139c-86.231,0-156.387,70.154-156.387,156.384
	c-0.003,41.771,16.264,81.041,45.801,110.578c29.537,29.537,68.807,45.804,110.577,45.801l135.55,0.006
	c28.515,0,50.99-29.504,61.57-54.769c0.037-0.092,0.079-0.185,0.116-0.277c15.171-34.914,39.236-99.07,39.236-122.578
	C512,209.754,490.869,188.626,465.861,188.626z"/>
<path style="fill:#E69629;" d="M472.648,357.617c0.037-0.092,0.079-0.185,0.116-0.277c11.759-27.065,28.855-71.686,35.952-101.338
	H119.149c-0.003,41.769,16.264,81.039,45.801,110.577c29.537,29.537,68.807,45.804,110.577,45.801l135.55,0.006
	C439.593,412.386,462.067,382.883,472.648,357.617z"/>
<path style="fill:#4D80C9;" d="M126.596,84.723H22.341C10.001,84.723,0,94.726,0,107.064v297.875
	c0,12.339,10.001,22.341,22.341,22.341h104.256c12.336,0,22.341-10.001,22.341-22.341V107.064
	C148.937,94.726,138.933,84.723,126.596,84.723z"/>
<path style="fill:#385C8E;" d="M148.937,404.939V256.002H0v148.937c0,12.339,10.001,22.341,22.341,22.341h104.256
	C138.933,427.28,148.937,417.278,148.937,404.939z"/>
<g>
</g>
<g>
</g>
<g>
</g>
<g>
</g>
<g>
</g>
<g>
</g>
<g>
</g>
<g>
</g>
<g>
</g>
<g>
</g>
<g>
</g>
<g>
</g>
<g>
</g>
<g>
</g>
<g>
</g>
</svg>
