<?xml version="1.0" encoding="iso-8859-1"?>
<!-- Generator: Adobe Illustrator 19.0.0, SVG Export Plug-In . SVG Version: 6.00 Build 0)  -->
<svg version="1.1" id="Layer_1" xmlns="http://www.w3.org/2000/svg" xmlns:xlink="http://www.w3.org/1999/xlink" x="0px" y="0px"
	 viewBox="0 0 509.287 509.287" style="enable-background:new 0 0 509.287 509.287;" xml:space="preserve">
<circle style="fill:#4F5565;" cx="254.644" cy="254.644" r="254.644"/>
<path style="fill:#F0582F;" d="M443.846,424.858v-93.923c0-12.207-9.833-21.701-21.701-21.701H109.521
	c-12.207,0-21.701,9.833-21.701,21.701v93.923c0,12.207,9.833,21.701,21.701,21.701h312.286
	C434.013,446.559,443.846,437.065,443.846,424.858z"/>
<g>
	<rect x="353.992" y="331.274" style="fill:#D54232;" width="64.085" height="93.245"/>
	<rect x="267.528" y="331.274" style="fill:#D54232;" width="64.085" height="93.245"/>
	<rect x="181.404" y="331.274" style="fill:#D54232;" width="64.085" height="93.245"/>
</g>
<path style="fill:#FBD303;" d="M362.808,152.922l-75.274-56.625c-9.494-7.121-23.396-5.425-30.517,4.408L69.849,350.601
	c-7.121,9.494-5.425,23.396,4.408,30.517l75.274,56.286c9.494,7.121,23.396,5.425,30.517-4.408l187.168-249.897
	C374.676,173.605,372.641,160.042,362.808,152.922z"/>
<g>
	
		<rect x="244.026" y="139.081" transform="matrix(-0.8004 -0.5995 0.5995 -0.8004 420.6937 482.33)" style="fill:#F8B517;" width="93.247" height="64.086"/>
	
		<rect x="192.114" y="208.133" transform="matrix(-0.8004 -0.5995 0.5995 -0.8004 285.837 575.5288)" style="fill:#F8B517;" width="93.247" height="64.086"/>
	
		<rect x="140.406" y="276.916" transform="matrix(-0.8004 -0.5995 0.5995 -0.8004 151.507 668.367)" style="fill:#F8B517;" width="93.247" height="64.086"/>
</g>
<path style="fill:#6EB1E1;" d="M181.404,62.728H87.481c-12.207,0-21.701,9.833-21.701,21.701v312.286
	c0,12.207,9.833,21.701,21.701,21.701h93.923c12.207,0,21.701-9.833,21.701-21.701V84.429
	C203.444,72.223,193.611,62.728,181.404,62.728z"/>
<g>
	<rect x="87.82" y="88.498" style="fill:#559DC9;" width="93.245" height="64.085"/>
	<rect x="87.82" y="174.962" style="fill:#559DC9;" width="93.245" height="64.085"/>
	<rect x="87.82" y="261.086" style="fill:#559DC9;" width="93.245" height="64.085"/>
</g>
<circle style="fill:#DEDEDF;" cx="134.273" cy="373.658" r="15.936"/>
<g>
</g>
<g>
</g>
<g>
</g>
<g>
</g>
<g>
</g>
<g>
</g>
<g>
</g>
<g>
</g>
<g>
</g>
<g>
</g>
<g>
</g>
<g>
</g>
<g>
</g>
<g>
</g>
<g>
</g>
</svg>
