<?xml version="1.0" encoding="iso-8859-1"?>
<!-- Generator: Adobe Illustrator 19.0.0, SVG Export Plug-In . SVG Version: 6.00 Build 0)  -->
<svg version="1.1" id="Layer_1" xmlns="http://www.w3.org/2000/svg" xmlns:xlink="http://www.w3.org/1999/xlink" x="0px" y="0px"
	 viewBox="0 0 473.935 473.935" style="enable-background:new 0 0 473.935 473.935;" xml:space="preserve">
<circle style="fill:#357180;" cx="236.967" cy="236.967" r="236.967"/>
<g>
	<path style="fill:#E27660;" d="M197.716,336.944c-3.906-3.903-18.904-19.263-18.63-18.993c0.056-0.052,28.741-28.378,28.741-28.378
		s16.157-14.271,22.275-27.985c0.494-1.104-18.821-18.978-18.821-18.978c-13.822,6.11-28.303,22.481-28.303,22.481
		c-9.485,9.478-28.557,28.194-28.557,28.194c-7.117-7.117-13.811-13.811-17.934-17.934c-10.425-10.421-21.672-30.279-38.305-13.65
		c-16.673,16.677,3.371,28.048,13.822,38.499c3.906,3.903,17.571,17.927,17.571,17.927c-7.289,7.285-2.073,2.069-6.275,6.279
		c-10.428,10.428-37.676,29.059-21.048,45.684c16.681,16.685,35.446-10.75,45.889-21.201c4.183-4.18-1.115,1.119,6.092-6.095
		c7.517,7.529,14.672,14.675,19.005,19.008c10.425,10.428,21.669,30.279,38.305,13.643
		C228.208,358.774,208.163,347.395,197.716,336.944z"/>
	<path style="fill:#E27660;" d="M352.241,119.801c-44.146-44.153-115.719-44.153-159.868,0c-44.146,44.153-44.146,115.722,0,159.864
		c44.149,44.157,115.722,44.157,159.868,0C396.39,235.523,396.39,163.954,352.241,119.801z M321.865,249.267
		c-27.364,27.364-71.723,27.364-99.09,0s-27.367-71.726,0-99.09s71.73-27.364,99.09,0
		C349.229,177.54,349.229,221.903,321.865,249.267z"/>
</g>
<path style="fill:#E27F76;" d="M148.141,348.888c4.183-4.18-1.115,1.119,6.092-6.095c7.517,7.528,14.672,14.675,19.005,19.008
	c10.425,10.428,21.669,30.279,38.305,13.643c16.666-16.67-3.379-28.048-13.826-38.499c-3.906-3.903-18.904-19.263-18.63-18.993
	c0.045-0.045,20.778-20.512,26.967-26.623c44.198,32.06,106.357,28.179,146.188-11.663c44.149-44.142,44.149-115.711,0-159.864
	c-0.03-0.03-0.064-0.06-0.094-0.086l-30.376,30.372c0.03,0.03,0.067,0.06,0.097,0.086c27.364,27.364,27.364,71.73,0,99.09
	c-27.364,27.364-71.723,27.364-99.09,0c-0.03-0.03-0.056-0.064-0.086-0.094L102.02,369.838c0.082,0.079,0.146,0.161,0.232,0.247
	C118.933,386.774,137.698,359.339,148.141,348.888z"/>
<g>
</g>
<g>
</g>
<g>
</g>
<g>
</g>
<g>
</g>
<g>
</g>
<g>
</g>
<g>
</g>
<g>
</g>
<g>
</g>
<g>
</g>
<g>
</g>
<g>
</g>
<g>
</g>
<g>
</g>
</svg>
