<?xml version="1.0" encoding="utf-8"?>
<!-- Generator: Adobe Illustrator 17.0.0, SVG Export Plug-In . SVG Version: 6.00 Build 0)  -->
<!DOCTYPE svg PUBLIC "-//W3C//DTD SVG 1.1//EN" "http://www.w3.org/Graphics/SVG/1.1/DTD/svg11.dtd">
<svg version="1.1" xmlns="http://www.w3.org/2000/svg" xmlns:xlink="http://www.w3.org/1999/xlink" x="0px" y="0px" width="5000px"
	 height="5000px" viewBox="0 0 5000 5000" enable-background="new 0 0 5000 5000" xml:space="preserve">
<g id="Layer_2" display="none">
	<rect display="inline" fill="#C59A85" width="5000" height="5000"/>
</g>
<g id="Layer_1">
	<path fill="#353535" d="M1432.855,4302.042c-0.264,185.563,159.176,336.193,356.001,336.472l1448.351,2.059
		c196.854,0.28,356.675-149.896,356.939-335.459l4.999-3517.319c0.264-185.56-159.129-336.203-355.984-336.483l-1448.351-2.058
		c-196.825-0.28-356.693,149.91-356.956,335.47L1432.855,4302.042z"/>
	<path fill="#FFFFFF" d="M2233.329,685.808c-0.04,28.411,20.313,51.451,45.356,51.487l448.016,0.637
		c25.084,0.036,45.476-22.947,45.517-51.358l0,0c0.041-28.445-20.286-51.525-45.37-51.561l-448.016-0.637
		C2253.788,634.341,2233.369,657.362,2233.329,685.808L2233.329,685.808z"/>
	<path fill="#FFFFFF" d="M3067.292,693.558c-0.039,27.406,22.694,49.666,50.727,49.706c28.073,0.04,50.858-22.155,50.897-49.562
		c0.039-27.434-22.684-49.645-50.756-49.685C3090.127,643.978,3067.332,666.125,3067.292,693.558z"/>
	
		<rect x="1524.916" y="865.901" transform="matrix(-1 -0.0014 0.0014 -1 5028.5107 5029.7832)" fill="#FFFFFF" width="1982.253" height="3294.407"/>
	<circle fill="#FFFFFF" cx="2483.835" cy="4394.124" r="172.499"/>
	<path fill="#DD959D" d="M2768.342,1761.361c17.424-27.031,27.979-62.19,27.979-100.669c0-85.239-51.688-154.332-115.46-154.332
		h-833.03c-63.769,0-115.464,69.094-115.464,154.332c0,85.246,51.695,154.338,115.464,154.338h833.03
		c10.754,0,20.061-0.869,29.938-4.542l0,0c75.35,61.73,102.216-19.226,102.216-19.226
		C2791.228,1791.262,2771.8,1777.88,2768.342,1761.361z"/>
	<path fill="#DD959D" d="M2768.342,2836.315c17.424-27.031,27.979-62.19,27.979-100.669c0-85.239-51.688-154.332-115.46-154.332
		h-833.03c-63.769,0-115.464,69.093-115.464,154.332c0,85.246,51.695,154.338,115.464,154.338h833.03
		c10.754,0,20.061-0.869,29.938-4.542l0,0c75.35,61.73,102.216-19.226,102.216-19.226
		C2791.228,2866.217,2771.8,2852.834,2768.342,2836.315z"/>
	<path fill="#DD959D" d="M2768.342,3888.404c17.424-27.031,27.979-62.19,27.979-100.669c0-85.239-51.688-154.332-115.46-154.332
		h-833.03c-63.769,0-115.464,69.093-115.464,154.332c0,85.246,51.695,154.338,115.464,154.338h833.03
		c10.754,0,20.061-0.869,29.938-4.542l0,0c75.35,61.73,102.216-19.226,102.216-19.226
		C2791.228,3918.305,2771.8,3904.923,2768.342,3888.404z"/>
	<path fill="#7EA885" d="M2230.613,1324.459c-17.424-27.031-27.979-62.19-27.979-100.669c0-85.239,51.688-154.332,115.46-154.332
		h833.03c63.769,0,115.464,69.093,115.464,154.332c0,85.246-51.695,154.338-115.464,154.338h-833.03
		c-10.754,0-20.061-0.869-29.938-4.542l0,0c-75.35,61.73-102.216-19.226-102.216-19.226
		C2207.727,1354.36,2227.154,1340.978,2230.613,1324.459z"/>
	<path fill="#7EA885" d="M2230.613,2333.274c-17.424-27.031-27.979-62.19-27.979-100.669c0-85.239,51.688-154.332,115.46-154.332
		h833.03c63.769,0,115.464,69.093,115.464,154.332c0,85.246-51.695,154.338-115.464,154.338h-833.03
		c-10.754,0-20.061-0.869-29.938-4.542l0,0c-75.35,61.73-102.216-19.226-102.216-19.226
		C2207.727,2363.176,2227.154,2349.793,2230.613,2333.274z"/>
	<path fill="#7EA885" d="M2230.613,3342.089c-17.424-27.031-27.979-62.19-27.979-100.669c0-85.239,51.688-154.332,115.46-154.332
		h833.03c63.769,0,115.464,69.093,115.464,154.332c0,85.246-51.695,154.338-115.464,154.338h-833.03
		c-10.754,0-20.061-0.869-29.938-4.542l0,0c-75.35,61.73-102.216-19.226-102.216-19.226
		C2207.727,3371.991,2227.154,3358.608,2230.613,3342.089z"/>
	<path fill="#3E7B7D" d="M2049.841,1233.104c0,49.561-19.263,94.611-50.707,128.07c-13.671,14.57-29.655,26.934-47.365,36.533
		c-10.146,5.507-20.87,10.092-32.055,13.66c-5.368,1.714-10.842,3.182-16.402,4.414c-1.832,0.407-3.675,0.782-5.528,1.125
		c-1.243,0.236-2.496,0.461-3.75,0.675c-3.76,0.632-7.553,1.146-11.389,1.543c-6.503,0.686-13.113,1.039-19.809,1.039
		c-1.993,0-3.975-0.032-5.946-0.096c-3.846-0.118-7.66-0.354-11.442-0.696c-1.543-0.15-3.075-0.3-4.607-0.482
		c-1.821-0.214-3.632-0.45-5.443-0.707c-0.129-0.021-0.246-0.043-0.375-0.064c-0.043,0-0.075-0.011-0.118-0.021
		c-3.953-0.621-7.907-1.328-11.806-2.153c-0.664-0.15-1.339-0.289-2.004-0.45c-12.599-2.861-24.759-6.985-36.233-12.331
		c-22.445-10.296-42.501-24.898-59.085-42.758c-0.075-0.064-0.139-0.139-0.193-0.203c-30.919-33.351-49.818-78.005-49.818-127.095
		c0-103.268,83.748-187.015,187.069-187.015C1966.093,1046.089,2049.841,1129.837,2049.841,1233.104z"/>
	<path fill="#DBB89C" d="M1942.361,1342.668l-30.912-16.078c-23.147-10.734-18.166-29.496-18.166-29.496h-23.796h-0.374h-23.796
		c0,0,4.981,18.761-18.166,29.496l-24.994,16.001l67.144-1.004L1942.361,1342.668z"/>
	<path fill="#DBB89C" d="M1796.489,1196.257c0.364,10.524-1.786,19.697-7.223,19.885c-5.437,0.188-9.376-8.217-9.74-18.741
		c-0.364-10.524,3.812-19.209,9.249-19.397S1796.125,1185.733,1796.489,1196.257z"/>
	<path fill="#EDD2B6" d="M1938.059,1194.142c-0.364,10.524,1.786,19.697,7.223,19.885c5.437,0.188,9.376-8.217,9.74-18.741
		c0.364-10.524-3.811-19.209-9.249-19.397C1940.336,1175.701,1938.422,1183.619,1938.059,1194.142z"/>
	<ellipse fill="#EED3B6" cx="1868.465" cy="1198.538" rx="73.896" ry="104.955"/>
	<path fill="#DDBA9C" d="M1869.124,1093.582v209.911c-40.929,0.382-74.556-45.85-74.556-103.563
		C1794.568,1140.976,1825.678,1094.6,1869.124,1093.582z"/>
	<path fill="#67371B" d="M1848.99,1178.871l-16.541-3.486c-2.953-0.622-5.978-0.622-8.931,0l-16.541,3.486
		c-0.881,0.186-1.809-0.138-2.392-0.929c-0.38-0.515-0.61-1.183-0.61-1.911v0c-0.348-2.878,12.491-5.162,12.491-5.162
		c2.24-0.427,8.454-1.79,19.3-0.511c0,0,17.134,2.064,16.227,5.672v0c0,0.728-0.23,1.396-0.61,1.911
		C1850.798,1178.733,1849.871,1179.057,1848.99,1178.871z"/>
	<path fill="#67371B" d="M1929.293,1178.871l-16.541-3.486c-2.953-0.622-5.978-0.622-8.931,0l-16.541,3.486
		c-0.881,0.186-1.809-0.138-2.392-0.929c-0.38-0.515-0.61-1.183-0.61-1.911v0c-0.348-2.878,12.491-5.162,12.491-5.162
		c2.24-0.427,8.454-1.79,19.3-0.511c0,0,17.134,2.064,16.227,5.672v0c0,0.728-0.23,1.396-0.61,1.911
		C1931.102,1178.733,1930.174,1179.057,1929.293,1178.871z"/>
	<g>
		<path fill="#F6EFE4" d="M1846.124,1196.304c0,0-7.519,9.337-16.827,9.337c-9.278,0-16.806-9.337-16.806-9.337
			s7.528-9.344,16.806-9.344C1838.605,1186.96,1846.124,1196.304,1846.124,1196.304z"/>
		<path fill="#4A4342" d="M1835.689,1196.303c0,3.523-2.853,6.376-6.385,6.376c-3.521,0-6.378-2.853-6.378-6.376
			c0-3.525,2.856-6.382,6.378-6.382C1832.835,1189.922,1835.689,1192.778,1835.689,1196.303z"/>
		<circle fill="#FFFFFF" cx="1831.194" cy="1194.475" r="2.202"/>
	</g>
	<g>
		<path fill="#FFFFFF" d="M1867.516,1282.434c13.181-0.79,17.951-10.612,21.579-18.902h-42.003
			C1850.82,1271.821,1859.838,1282.894,1867.516,1282.434z"/>
		<path fill="#E2415D" d="M1889.275,1262.714c-0.138-0.178-0.35-0.282-0.575-0.282h-41.55c-0.226,0-0.44,0.105-0.578,0.285
			c-0.138,0.18-0.184,0.413-0.126,0.632c3.401,12.711,13.548,19.663,21.385,19.751c8.219-0.093,18.268-6.909,21.573-19.758
			C1889.461,1263.124,1889.413,1262.892,1889.275,1262.714z M1867.832,1281.643c-7.098-0.08-16.277-6.319-19.718-17.755h39.632
			C1884.398,1275.44,1875.286,1281.559,1867.832,1281.643z"/>
		<g>
			<path fill="#F4949C" d="M1886.322,1267.772h-36.738c1.693,4.41,5.537,8.071,8.245,10.276h20.28
				C1881.397,1275.823,1884.472,1272.142,1886.322,1267.772z"/>
		</g>
	</g>
	<path fill="#B8926E" d="M1870.921,1233.063c0,0-1.186,1.388-2.938,1.369c-1.753,0.019-2.938-1.369-2.938-1.369
		c-4.125-2.523-4.745,0.815-4.745,0.815c0.218,1.974,4.841,1.181,4.841,1.181c0.955,0.947,1.962,1.192,2.842,1.133
		c0.88,0.058,1.887-0.187,2.842-1.133c0,0,4.623,0.794,4.841-1.181C1875.666,1233.878,1875.046,1230.54,1870.921,1233.063z"/>
	<path fill="#67371B" d="M1798.432,1232.12c0,0-16.903-62.958,19.303-94.49c0,0,26.985,21.735,59.817,14.098
		c0,0,10.85-2.325,23.929-10.529c0,0,25.64-10.873,34.063,14.246c8.973,26.756,4.412,53.973,4.957,70.239
		c0,0,11.992-27.112,12.38-68.365c0,0,1.941,7.294,2.705,16.301c0,0,4.513-31.471-3.661-50c0,0-5.993-19.853-28.88-30.037
		c0,0-13.545-21.633-67.579-17.296c0,0-0.89-3.695,7.466-7.09c0,0-41.651-2.659-51.079,25.658c0,0-33.724,7.394-30.578,66.043
		l3.56-10.955C1784.835,1149.942,1778.27,1205.151,1798.432,1232.12z"/>
	<g>
		<path fill="#F6EFE4" d="M1889.428,1195.99c0,0,7.519,9.337,16.827,9.337c9.278,0,16.806-9.337,16.806-9.337
			s-7.528-9.344-16.806-9.344C1896.947,1186.646,1889.428,1195.99,1889.428,1195.99z"/>
		<path fill="#4A4342" d="M1899.863,1195.989c0,3.523,2.853,6.376,6.385,6.376c3.521,0,6.378-2.852,6.378-6.376
			c0-3.525-2.856-6.382-6.378-6.382C1902.717,1189.607,1899.863,1192.464,1899.863,1195.989z"/>
		<circle fill="#FFFFFF" cx="1908.3" cy="1194.342" r="2.202"/>
	</g>
	<path fill="#D1AC92" d="M1845.71,1303.111l59.175,19.386c0,0-14.109-7.672-11.686-25.031c0,0-21.618,12.516-47.736,0.099
		C1845.463,1297.565,1845.893,1299.852,1845.71,1303.111z"/>
	<path fill="#FCFDFF" d="M1915.675,1344.605l-8.421,34.436l-0.043,0.151l-0.011,0.065l-0.368,2.068l0.167,0.043v0.022l-9.028,35.515
		c-1.243,0.236-2.591,0.461-3.844,0.675c-3.76,0.632-7.6,1.146-11.436,1.543c-6.503,0.686-13.137,1.039-19.833,1.039
		c-1.993,0-3.987-0.032-5.958-0.096c-3.846-0.118-7.666-0.354-11.448-0.696c-1.543-0.15-2.816-0.3-4.349-0.482l-9.105-37.701v-0.011
		l-0.264-0.032l-0.736-1.789v-0.011l-8.461-34.094l6.592-0.25h0.011l26.462-2h0.022l11.056-0.336l0.011,0.157l0.043,0.178h1.629
		l0.096-0.036l0.664-0.045l0.332,0.051l0.086,0.029h2.089h12.406h0.021l25.941,1.729V1344h0.618L1915.675,1344.605z"/>
	<polygon opacity="0.11" fill="#060606" points="1868.736,1343.121 1828.351,1384.389 1813.786,1325.908 1834.31,1321.053 	"/>
	<polygon opacity="0.11" fill="#060606" points="1869.174,1343.121 1909.558,1384.389 1924.123,1325.908 1903.6,1321.053 	"/>
	<g>
		<g>
			<g>
				<path fill="#D6543B" d="M1878.081,1356.407c-0.344,0.669-1.811,1.172-3.302,1.172h-9.898c-1.491,0-2.958-0.503-3.302-1.172
					l-5.664-11.014c-1.102-2.143,0.404-4.146,3.532-4.146h20.767c3.128,0,4.634,2.003,3.532,4.146L1878.081,1356.407z"/>
			</g>
			<g>
				<path fill="#D6543B" d="M1862.836,1420.162c-1.993,0-3.734-0.032-5.705-0.096l4.869-63.778v-0.011l-0.471-0.278h16.552
					l-0.081,0.364v0.011l4.594,62.749C1876.091,1419.809,1869.532,1420.162,1862.836,1420.162z"/>
			</g>
		</g>
	</g>
	<path fill="#121619" d="M1725.778,1360.402c29.451-25.734,67.302-34.647,71.448-35.569c0.246-0.054,0.375-0.086,0.375-0.086
		l8.367,15.395l1.286,2.368l9.417,17.324l18.234,58.26c-3.953-0.621-7.907-1.328-11.806-2.153c-0.664-0.15-1.339-0.289-2.004-0.45
		c-12.599-2.861-24.759-6.985-36.233-12.331C1762.418,1392.865,1742.362,1378.262,1725.778,1360.402z"/>
	<path fill="#3C444F" d="M1903.312,1415.781l16.938-55.239l-0.172-18.202v-0.193l-0.096-11.121l-0.054-6.107v-0.011l-0.011-0.889
		h0.011c0.439,0.086,9.139,1.843,21.577,6.085c0.011,0,0.021,0,0.032,0.011c14.57,4.96,34.23,13.349,51.768,26.452
		c1.971,1.479,3.921,3.011,5.828,4.607c-13.671,14.57-29.655,26.934-47.365,36.533c-10.146,5.507-20.87,10.092-32.055,13.66
		C1914.347,1413.081,1908.872,1414.549,1903.312,1415.781z"/>
	<polygon fill="#FCFDFF" points="1869.174,1340.448 1909.558,1381.715 1924.601,1325.33 1899.776,1318.379 	"/>
	<path fill="#C1C0BE" d="M1941.538,1330.115l-0.932,11.635v0.011l-0.075,0.879l-4.65,57.875h-23.109l6.942,10.853
		c-5.368,1.714-10.842,3.182-16.402,4.414c-1.832,0.407-3.675,0.782-5.528,1.125c-1.243,0.236-2.496,0.461-3.75,0.675l9.053-39.801
		l0.493-2.175l7.017-30.876l0.011-0.032l0.011-0.043l0.268-1.221l0.289-1.221l3.289-14.046v-0.011l1.018-4.296l0.236-1.018
		c0,0,0,0,0.011,0c0.011,0.011,0.021,0.011,0.043,0.011c1.157,0.279,19.349,4.65,25.734,7.253
		C1941.516,1330.105,1941.527,1330.105,1941.538,1330.115z"/>
	<polygon fill="#FCFDFF" points="1869.118,1340.448 1828.733,1381.715 1814.168,1321.325 1837.973,1319.355 	"/>
	<g>
		<g>
			<g>
				<path fill="#3C444F" d="M1725.778,1360.402c-0.075-0.064-0.139-0.139-0.193-0.203c31.219-27.416,72.016-35.826,72.016-35.826
					l0.086,0.15l8.442,15.524l1.339,2.464l9.203,16.938l18.352,58.667c-0.043,0-0.075-0.011-0.118-0.021
					c-3.953-0.621-7.907-1.328-11.806-2.153c-0.664-0.15-1.339-0.289-2.004-0.45c-12.599-2.861-24.759-6.985-36.233-12.331
					C1762.418,1392.865,1742.362,1378.262,1725.778,1360.402z"/>
			</g>
		</g>
	</g>
	<path fill="#C1C0BE" d="M1840.841,1418.887c-1.821-0.214-3.632-0.45-5.443-0.707c-0.129-0.021-0.246-0.043-0.375-0.064
		c-0.043,0-0.075-0.011-0.118-0.021c-3.953-0.621-7.907-1.328-11.806-2.153c-0.664-0.15-1.339-0.289-2.004-0.45l-2.818-6.557
		l7.832-12.235h-23.109l-5.775-71.866v-0.086c0.15-0.075,0.3-0.15,0.461-0.225c0.643-0.321,1.35-0.632,2.121-0.814
		c11.292-2.635,23.227-3.15,23.966-3.182c0.021,0,0.032,0,0.032,0l0.632,2.86l0.943,4.328v0.011l2.646,12.085l0.525,2.378v0.011
		l0.578,2.614v0.021l0.011,0.032l6.514,29.773l0.407,1.864l9.385,42.865C1843.905,1419.22,1842.373,1419.07,1840.841,1418.887z"/>
	<path fill="#3E7B7D" d="M2047.698,2200.536c0,49.561-19.263,94.611-50.707,128.07c-13.671,14.57-29.655,26.934-47.365,36.533
		c-10.146,5.507-20.87,10.092-32.055,13.66c-5.368,1.714-10.842,3.182-16.402,4.414c-1.832,0.407-3.675,0.782-5.528,1.125
		c-1.243,0.236-2.496,0.461-3.75,0.675c-3.76,0.632-7.553,1.146-11.389,1.543c-6.503,0.686-13.113,1.039-19.809,1.039
		c-1.993,0-3.975-0.032-5.946-0.096c-3.846-0.118-7.66-0.354-11.442-0.696c-1.543-0.15-3.075-0.3-4.607-0.482
		c-1.821-0.214-3.632-0.45-5.443-0.707c-0.129-0.021-0.246-0.043-0.375-0.064c-0.043,0-0.075-0.011-0.118-0.021
		c-3.953-0.622-7.907-1.329-11.806-2.154c-0.664-0.15-1.339-0.289-2.004-0.45c-12.599-2.861-24.759-6.985-36.233-12.331
		c-22.445-10.296-42.501-24.898-59.085-42.758c-0.075-0.064-0.139-0.139-0.193-0.203c-30.919-33.351-49.818-78.005-49.818-127.095
		c0-103.268,83.748-187.015,187.069-187.015C1963.95,2013.521,2047.698,2097.268,2047.698,2200.536z"/>
	<path fill="#DBB89C" d="M1940.218,2310.1l-30.912-16.078c-23.147-10.734-18.166-29.496-18.166-29.496h-23.796h-0.374h-23.796
		c0,0,4.981,18.761-18.166,29.496l-24.994,16.001l67.144-1.004L1940.218,2310.1z"/>
	<path fill="#DBB89C" d="M1794.346,2163.689c0.364,10.523-1.786,19.697-7.223,19.885c-5.437,0.188-9.376-8.217-9.74-18.741
		c-0.364-10.524,3.812-19.209,9.249-19.397C1792.069,2145.248,1793.983,2153.165,1794.346,2163.689z"/>
	<path fill="#EDD2B6" d="M1935.916,2161.574c-0.364,10.524,1.786,19.697,7.223,19.885s9.376-8.217,9.74-18.741
		c0.364-10.523-3.812-19.209-9.249-19.397C1938.193,2143.133,1936.28,2151.05,1935.916,2161.574z"/>
	<ellipse fill="#EED3B6" cx="1866.322" cy="2165.969" rx="73.896" ry="104.955"/>
	<path fill="#DDBA9C" d="M1866.981,2061.014v209.911c-40.929,0.382-74.556-45.85-74.556-103.563
		C1792.425,2108.408,1823.536,2062.032,1866.981,2061.014z"/>
	<path fill="#67371B" d="M1846.847,2146.302l-16.541-3.486c-2.953-0.622-5.978-0.622-8.931,0l-16.541,3.486
		c-0.881,0.186-1.809-0.138-2.392-0.929c-0.38-0.515-0.61-1.183-0.61-1.911l0,0c-0.348-2.878,12.491-5.162,12.491-5.162
		c2.24-0.427,8.454-1.79,19.3-0.51c0,0,17.134,2.064,16.227,5.672l0,0c0,0.728-0.23,1.396-0.61,1.911
		C1848.656,2146.164,1847.728,2146.488,1846.847,2146.302z"/>
	<path fill="#67371B" d="M1927.15,2146.302l-16.541-3.486c-2.953-0.622-5.978-0.622-8.931,0l-16.541,3.486
		c-0.881,0.186-1.809-0.138-2.392-0.929c-0.38-0.515-0.61-1.183-0.61-1.911l0,0c-0.348-2.878,12.491-5.162,12.491-5.162
		c2.24-0.427,8.454-1.79,19.3-0.51c0,0,17.134,2.064,16.227,5.672l0,0c0,0.728-0.23,1.396-0.61,1.911
		C1928.959,2146.164,1928.031,2146.488,1927.15,2146.302z"/>
	<g>
		<path fill="#F6EFE4" d="M1843.981,2163.736c0,0-7.519,9.337-16.827,9.337c-9.278,0-16.806-9.337-16.806-9.337
			s7.528-9.344,16.806-9.344C1836.462,2154.392,1843.981,2163.736,1843.981,2163.736z"/>
		<path fill="#4A4342" d="M1833.546,2163.735c0,3.523-2.853,6.376-6.385,6.376c-3.521,0-6.378-2.853-6.378-6.376
			c0-3.525,2.856-6.382,6.378-6.382C1830.693,2157.353,1833.546,2160.21,1833.546,2163.735z"/>
		<circle fill="#FFFFFF" cx="1829.051" cy="2161.907" r="2.202"/>
	</g>
	<g>
		<path fill="#FFFFFF" d="M1865.373,2249.865c13.181-0.79,17.951-10.612,21.579-18.902h-42.003
			C1848.677,2239.253,1857.695,2250.326,1865.373,2249.865z"/>
		<path fill="#E2415D" d="M1887.132,2230.146c-0.138-0.178-0.35-0.282-0.576-0.282h-41.55c-0.226,0-0.44,0.105-0.578,0.285
			c-0.138,0.18-0.184,0.413-0.126,0.632c3.401,12.711,13.548,19.663,21.385,19.751c8.219-0.093,18.268-6.909,21.573-19.758
			C1887.318,2230.555,1887.271,2230.324,1887.132,2230.146z M1865.689,2249.075c-7.098-0.08-16.277-6.319-19.718-17.755h39.632
			C1882.255,2242.872,1873.144,2248.991,1865.689,2249.075z"/>
		<g>
			<path fill="#F4949C" d="M1884.179,2235.204h-36.738c1.693,4.41,5.537,8.071,8.245,10.276h20.28
				C1879.255,2243.255,1882.329,2239.573,1884.179,2235.204z"/>
		</g>
	</g>
	<path fill="#B8926E" d="M1868.778,2200.495c0,0-1.186,1.387-2.938,1.368c-1.753,0.019-2.938-1.368-2.938-1.368
		c-4.125-2.523-4.745,0.814-4.745,0.814c0.218,1.975,4.841,1.181,4.841,1.181c0.955,0.947,1.962,1.192,2.842,1.133
		c0.88,0.058,1.887-0.187,2.842-1.133c0,0,4.623,0.794,4.841-1.181C1873.523,2201.309,1872.903,2197.972,1868.778,2200.495z"/>
	<path fill="#67371B" d="M1796.289,2199.552c0,0-16.903-62.958,19.303-94.491c0,0,26.985,21.736,59.817,14.098
		c0,0,10.85-2.325,23.929-10.529c0,0,25.64-10.873,34.063,14.246c8.973,26.756,4.412,53.972,4.957,70.239
		c0,0,11.992-27.112,12.38-68.365c0,0,1.941,7.294,2.705,16.301c0,0,4.513-31.471-3.661-50c0,0-5.993-19.853-28.88-30.037
		c0,0-13.545-21.633-67.579-17.296c0,0-0.89-3.695,7.466-7.09c0,0-41.651-2.659-51.079,25.658c0,0-33.724,7.394-30.578,66.043
		l3.56-10.955C1782.692,2117.374,1776.127,2172.583,1796.289,2199.552z"/>
	<g>
		<path fill="#F6EFE4" d="M1887.285,2163.421c0,0,7.519,9.337,16.827,9.337c9.278,0,16.806-9.337,16.806-9.337
			s-7.528-9.344-16.806-9.344C1894.804,2154.077,1887.285,2163.421,1887.285,2163.421z"/>
		<path fill="#4A4342" d="M1897.72,2163.421c0,3.523,2.853,6.376,6.385,6.376c3.521,0,6.378-2.853,6.378-6.376
			c0-3.525-2.856-6.382-6.378-6.382C1900.574,2157.039,1897.72,2159.896,1897.72,2163.421z"/>
		<circle fill="#FFFFFF" cx="1906.157" cy="2161.773" r="2.202"/>
	</g>
	<path fill="#D1AC92" d="M1843.568,2270.543l59.175,19.385c0,0-14.109-7.671-11.686-25.031c0,0-21.618,12.515-47.736,0.099
		C1843.32,2264.997,1843.75,2267.284,1843.568,2270.543z"/>
	<path fill="#FCFDFF" d="M1913.532,2312.321l-8.421,34.294l-0.043,0.08l-0.011,0.03l-0.297,2.05l0.239,0.025v0.021l-9.099,35.515
		c-1.243,0.236-2.626,0.461-3.88,0.675c-3.76,0.632-7.618,1.146-11.454,1.543c-6.503,0.686-13.146,1.039-19.842,1.039
		c-1.993,0-3.991-0.032-5.962-0.096c-3.846-0.118-7.668-0.354-11.45-0.696c-1.543-0.15-2.746-0.3-4.278-0.482l-9.035-37.701v-0.011
		l-0.264-0.032l-0.736-1.789v-0.011l-8.532-33.81l6.52,0.034h0.011l26.462-2h0.021l11.056-0.62l0.011,0.299l0.043,0.321h1.628
		l0.096-0.32l0.664-0.187l0.332,0.264l0.086,0.242h2.089h12.406h0.021l26.083,1.16V2312h0.475L1913.532,2312.321z"/>
	<polygon opacity="0.11" fill="#060606" points="1866.593,2310.553 1826.209,2351.821 1811.644,2293.34 1832.167,2288.485 	"/>
	<polygon opacity="0.11" fill="#060606" points="1867.031,2310.553 1907.416,2351.821 1921.981,2293.34 1901.457,2288.485 	"/>
	<g>
		<g>
			<g>
				<path fill="#D6543B" d="M1875.938,2323.838c-0.344,0.669-1.811,1.172-3.302,1.172h-9.898c-1.491,0-2.958-0.503-3.302-1.172
					l-5.664-11.014c-1.102-2.143,0.404-4.146,3.532-4.146h20.767c3.128,0,4.634,2.003,3.532,4.146L1875.938,2323.838z"/>
			</g>
			<g>
				<path fill="#D6543B" d="M1860.693,2387.594c-1.993,0-4.163-0.032-6.134-0.096l4.441-63.778v-0.011l0.386,0.291h16.552
					l0.061-0.205v0.01l4.522,62.749C1874.019,2387.241,1867.389,2387.594,1860.693,2387.594z"/>
			</g>
		</g>
	</g>
	<path fill="#121619" d="M1723.635,2327.834c29.451-25.734,67.302-34.647,71.448-35.569c0.246-0.054,0.375-0.086,0.375-0.086
		l8.367,15.395l1.286,2.368l9.417,17.324l18.234,58.26c-3.953-0.622-7.907-1.329-11.806-2.154c-0.664-0.15-1.339-0.289-2.004-0.45
		c-12.599-2.861-24.759-6.985-36.233-12.331C1760.275,2360.296,1740.22,2345.694,1723.635,2327.834z"/>
	<path fill="#3C444F" d="M1901.169,2383.212l16.938-55.239l-0.172-18.202v-0.193l-0.096-11.121l-0.054-6.107v-0.011l-0.011-0.889
		h0.011c0.439,0.086,9.139,1.843,21.577,6.085c0.011,0,0.021,0,0.032,0.011c14.57,4.96,34.23,13.349,51.768,26.452
		c1.971,1.479,3.921,3.01,5.828,4.607c-13.671,14.57-29.655,26.934-47.365,36.533c-10.146,5.507-20.87,10.092-32.055,13.66
		C1912.204,2380.513,1906.729,2381.98,1901.169,2383.212z"/>
	<polygon fill="#FCFDFF" points="1867.031,2307.879 1907.416,2349.147 1922.458,2292.761 1897.633,2285.811 	"/>
	<path fill="#C1C0BE" d="M1939.395,2297.547l-0.932,11.635v0.011l-0.075,0.879l-4.65,57.875h-23.109l6.942,10.853
		c-5.368,1.714-10.842,3.182-16.402,4.414c-1.832,0.407-3.675,0.782-5.528,1.125c-1.243,0.236-2.496,0.461-3.75,0.675l9.053-39.801
		l0.493-2.175l7.017-30.876l0.011-0.032l0.011-0.043l0.268-1.221l0.289-1.221l3.289-14.045v-0.011l1.018-4.296l0.236-1.018
		c0,0,0,0,0.011,0c0.011,0.01,0.021,0.01,0.043,0.01c1.157,0.279,19.349,4.65,25.734,7.253
		C1939.373,2297.536,1939.384,2297.536,1939.395,2297.547z"/>
	<polygon fill="#FCFDFF" points="1866.975,2307.879 1826.591,2349.147 1812.026,2288.756 1835.831,2286.787 	"/>
	<g>
		<g>
			<g>
				<path fill="#3C444F" d="M1723.635,2327.834c-0.075-0.064-0.139-0.139-0.193-0.203c31.219-27.416,72.016-35.826,72.016-35.826
					l0.086,0.15l8.442,15.524l1.339,2.464l9.203,16.938l18.352,58.667c-0.043,0-0.075-0.011-0.118-0.021
					c-3.953-0.622-7.907-1.329-11.806-2.154c-0.664-0.15-1.339-0.289-2.004-0.45c-12.599-2.861-24.759-6.985-36.233-12.331
					C1760.275,2360.296,1740.22,2345.694,1723.635,2327.834z"/>
			</g>
		</g>
	</g>
	<path fill="#C1C0BE" d="M1838.698,2386.319c-1.821-0.214-3.632-0.45-5.443-0.707c-0.129-0.021-0.246-0.043-0.375-0.064
		c-0.043,0-0.075-0.011-0.118-0.021c-3.953-0.622-7.907-1.329-11.806-2.154c-0.664-0.15-1.339-0.289-2.004-0.45l-2.818-6.557
		l7.832-12.235h-23.109l-5.775-71.866v-0.086c0.15-0.075,0.3-0.15,0.461-0.225c0.643-0.321,1.35-0.632,2.121-0.814
		c11.292-2.635,23.227-3.15,23.966-3.182c0.021,0,0.032,0,0.032,0l0.632,2.861l0.943,4.328v0.011l2.646,12.085l0.525,2.378v0.011
		l0.578,2.614v0.021l0.011,0.032l6.514,29.773l0.407,1.864l9.385,42.865C1841.762,2386.651,1840.23,2386.501,1838.698,2386.319z"/>
	<path fill="#3E7B7D" d="M2047.698,3241.891c0,49.561-19.263,94.611-50.707,128.07c-13.671,14.57-29.655,26.934-47.365,36.533
		c-10.146,5.507-20.87,10.092-32.055,13.66c-5.368,1.714-10.842,3.182-16.402,4.414c-1.832,0.407-3.675,0.782-5.528,1.125
		c-1.243,0.236-2.496,0.461-3.75,0.675c-3.76,0.632-7.553,1.147-11.389,1.543c-6.503,0.686-13.113,1.039-19.809,1.039
		c-1.993,0-3.975-0.032-5.946-0.096c-3.846-0.118-7.66-0.354-11.442-0.696c-1.543-0.15-3.075-0.3-4.607-0.482
		c-1.821-0.214-3.632-0.45-5.443-0.707c-0.129-0.021-0.246-0.043-0.375-0.064c-0.043,0-0.075-0.011-0.118-0.021
		c-3.953-0.621-7.907-1.329-11.806-2.154c-0.664-0.15-1.339-0.289-2.004-0.45c-12.599-2.861-24.759-6.985-36.233-12.331
		c-22.445-10.296-42.501-24.898-59.085-42.758c-0.075-0.064-0.139-0.139-0.193-0.204c-30.919-33.351-49.818-78.005-49.818-127.094
		c0-103.268,83.748-187.015,187.069-187.015C1963.95,3054.876,2047.698,3138.623,2047.698,3241.891z"/>
	<path fill="#DBB89C" d="M1940.218,3351.455l-30.912-16.078c-23.147-10.734-18.166-29.496-18.166-29.496h-23.796h-0.374h-23.796
		c0,0,4.981,18.761-18.166,29.496l-24.994,16.001l67.144-1.003L1940.218,3351.455z"/>
	<path fill="#DBB89C" d="M1794.346,3205.044c0.364,10.524-1.786,19.697-7.223,19.885s-9.376-8.217-9.74-18.741
		c-0.364-10.523,3.812-19.209,9.249-19.397C1792.069,3186.603,1793.983,3194.52,1794.346,3205.044z"/>
	<path fill="#EDD2B6" d="M1935.916,3202.929c-0.364,10.524,1.786,19.697,7.223,19.885c5.437,0.188,9.376-8.218,9.74-18.741
		c0.364-10.524-3.812-19.209-9.249-19.397C1938.193,3184.488,1936.28,3192.406,1935.916,3202.929z"/>
	<ellipse fill="#EED3B6" cx="1866.322" cy="3207.324" rx="73.896" ry="104.955"/>
	<path fill="#DDBA9C" d="M1866.981,3102.369v209.911c-40.929,0.382-74.556-45.85-74.556-103.563
		C1792.425,3149.763,1823.536,3103.387,1866.981,3102.369z"/>
	<path fill="#67371B" d="M1846.847,3187.658l-16.541-3.486c-2.953-0.622-5.978-0.622-8.931,0l-16.541,3.486
		c-0.881,0.186-1.809-0.138-2.392-0.929c-0.38-0.515-0.61-1.183-0.61-1.911l0,0c-0.348-2.878,12.491-5.162,12.491-5.162
		c2.24-0.427,8.454-1.79,19.3-0.511c0,0,17.134,2.064,16.227,5.672l0,0c0,0.728-0.23,1.396-0.61,1.911
		C1848.656,3187.519,1847.728,3187.844,1846.847,3187.658z"/>
	<path fill="#67371B" d="M1927.15,3187.658l-16.541-3.486c-2.953-0.622-5.978-0.622-8.931,0l-16.541,3.486
		c-0.881,0.186-1.809-0.138-2.392-0.929c-0.38-0.515-0.61-1.183-0.61-1.911l0,0c-0.348-2.878,12.491-5.162,12.491-5.162
		c2.24-0.427,8.454-1.79,19.3-0.511c0,0,17.134,2.064,16.227,5.672l0,0c0,0.728-0.23,1.396-0.61,1.911
		C1928.959,3187.519,1928.031,3187.844,1927.15,3187.658z"/>
	<g>
		<path fill="#F6EFE4" d="M1843.981,3205.091c0,0-7.519,9.337-16.827,9.337c-9.278,0-16.806-9.337-16.806-9.337
			s7.528-9.344,16.806-9.344C1836.462,3195.747,1843.981,3205.091,1843.981,3205.091z"/>
		<path fill="#4A4342" d="M1833.546,3205.09c0,3.523-2.853,6.376-6.385,6.376c-3.521,0-6.378-2.853-6.378-6.376
			c0-3.525,2.856-6.382,6.378-6.382C1830.693,3198.708,1833.546,3201.565,1833.546,3205.09z"/>
		<circle fill="#FFFFFF" cx="1829.051" cy="3203.262" r="2.202"/>
	</g>
	<g>
		<path fill="#FFFFFF" d="M1865.373,3291.22c13.181-0.79,17.951-10.612,21.579-18.902h-42.003
			C1848.677,3280.608,1857.695,3291.681,1865.373,3291.22z"/>
		<path fill="#E2415D" d="M1887.132,3271.501c-0.138-0.178-0.35-0.282-0.576-0.282h-41.55c-0.226,0-0.44,0.105-0.578,0.285
			c-0.138,0.18-0.184,0.413-0.126,0.632c3.401,12.711,13.548,19.663,21.385,19.751c8.219-0.093,18.268-6.909,21.573-19.758
			C1887.318,3271.911,1887.271,3271.679,1887.132,3271.501z M1865.689,3290.43c-7.098-0.08-16.277-6.319-19.718-17.755h39.632
			C1882.255,3284.227,1873.144,3290.346,1865.689,3290.43z"/>
		<g>
			<path fill="#F4949C" d="M1884.179,3276.559h-36.738c1.693,4.41,5.537,8.071,8.245,10.276h20.28
				C1879.255,3284.61,1882.329,3280.929,1884.179,3276.559z"/>
		</g>
	</g>
	<path fill="#B8926E" d="M1868.778,3241.85c0,0-1.186,1.387-2.938,1.369c-1.753,0.019-2.938-1.369-2.938-1.369
		c-4.125-2.523-4.745,0.815-4.745,0.815c0.218,1.974,4.841,1.181,4.841,1.181c0.955,0.947,1.962,1.192,2.842,1.133
		c0.88,0.058,1.887-0.187,2.842-1.133c0,0,4.623,0.794,4.841-1.181C1873.523,3242.665,1872.903,3239.327,1868.778,3241.85z"/>
	<path fill="#67371B" d="M1796.289,3240.907c0,0-16.903-62.958,19.303-94.49c0,0,26.985,21.735,59.817,14.097
		c0,0,10.85-2.325,23.929-10.529c0,0,25.64-10.873,34.063,14.246c8.973,26.756,4.412,53.973,4.957,70.239
		c0,0,11.992-27.112,12.38-68.365c0,0,1.941,7.294,2.705,16.301c0,0,4.513-31.471-3.661-50c0,0-5.993-19.853-28.88-30.037
		c0,0-13.545-21.633-67.579-17.296c0,0-0.89-3.695,7.466-7.09c0,0-41.651-2.659-51.079,25.658c0,0-33.724,7.394-30.578,66.043
		l3.56-10.955C1782.692,3158.729,1776.127,3213.938,1796.289,3240.907z"/>
	<g>
		<path fill="#F6EFE4" d="M1887.285,3204.776c0,0,7.519,9.337,16.827,9.337c9.278,0,16.806-9.337,16.806-9.337
			s-7.528-9.344-16.806-9.344C1894.804,3195.433,1887.285,3204.776,1887.285,3204.776z"/>
		<path fill="#4A4342" d="M1897.72,3204.776c0,3.523,2.853,6.376,6.385,6.376c3.521,0,6.378-2.853,6.378-6.376
			c0-3.525-2.856-6.382-6.378-6.382C1900.574,3198.394,1897.72,3201.251,1897.72,3204.776z"/>
		<circle fill="#FFFFFF" cx="1906.157" cy="3203.128" r="2.202"/>
	</g>
	<path fill="#D1AC92" d="M1843.568,3311.898l59.175,19.386c0,0-14.109-7.672-11.686-25.031c0,0-21.618,12.516-47.736,0.099
		C1843.32,3306.352,1843.75,3308.639,1843.568,3311.898z"/>
	<path fill="#FCFDFF" d="M1913.532,3353.499l-8.421,34.383l-0.043,0.125l-0.011,0.052l-0.297,2.062l0.239,0.036v0.021l-9.099,35.515
		c-1.243,0.236-2.626,0.461-3.88,0.675c-3.76,0.632-7.618,1.147-11.454,1.543c-6.503,0.686-13.146,1.039-19.842,1.039
		c-1.993,0-3.991-0.032-5.962-0.096c-3.846-0.118-7.668-0.354-11.45-0.696c-1.543-0.15-2.746-0.3-4.278-0.482l-9.035-37.701v-0.01
		l-0.264-0.032l-0.736-1.789v-0.011l-8.532-33.988l6.52-0.143h0.011l26.462-2h0.021l11.056-0.442l0.011,0.21l0.043,0.232h1.628
		l0.096-0.142l0.664-0.098l0.332,0.131l0.086,0.109h2.089h12.406h0.021l26.083,1.515V3353h0.475L1913.532,3353.499z"/>
	<polygon opacity="0.11" fill="#060606" points="1866.593,3351.908 1826.209,3393.176 1811.644,3334.695 1832.167,3329.84 	"/>
	<polygon opacity="0.11" fill="#060606" points="1867.031,3351.908 1907.416,3393.176 1921.981,3334.695 1901.457,3329.84 	"/>
	<g>
		<g>
			<g>
				<path fill="#D6543B" d="M1875.938,3365.194c-0.344,0.669-1.811,1.172-3.302,1.172h-9.898c-1.491,0-2.958-0.503-3.302-1.172
					l-5.664-11.014c-1.102-2.143,0.404-4.146,3.532-4.146h20.767c3.128,0,4.634,2.003,3.532,4.146L1875.938,3365.194z"/>
			</g>
			<g>
				<path fill="#D6543B" d="M1860.693,3428.949c-1.993,0-4.163-0.032-6.134-0.096l4.441-63.778v-0.011l0.386-0.064h16.552
					l0.061,0.15v0.01l4.522,62.749C1874.019,3428.596,1867.389,3428.949,1860.693,3428.949z"/>
			</g>
		</g>
	</g>
	<path fill="#121619" d="M1723.635,3369.189c29.451-25.734,67.302-34.647,71.448-35.569c0.246-0.054,0.375-0.086,0.375-0.086
		l8.367,15.395l1.286,2.368l9.417,17.324l18.234,58.26c-3.953-0.621-7.907-1.329-11.806-2.154c-0.664-0.15-1.339-0.289-2.004-0.45
		c-12.599-2.861-24.759-6.985-36.233-12.331C1760.275,3401.651,1740.22,3387.049,1723.635,3369.189z"/>
	<path fill="#3C444F" d="M1901.169,3424.567l16.938-55.239l-0.172-18.202v-0.193l-0.096-11.121l-0.054-6.107v-0.011l-0.011-0.889
		h0.011c0.439,0.086,9.139,1.843,21.577,6.085c0.011,0,0.021,0,0.032,0.01c14.57,4.96,34.23,13.349,51.768,26.452
		c1.971,1.479,3.921,3.011,5.828,4.607c-13.671,14.57-29.655,26.934-47.365,36.533c-10.146,5.507-20.87,10.092-32.055,13.66
		C1912.204,3421.868,1906.729,3423.335,1901.169,3424.567z"/>
	<polygon fill="#FCFDFF" points="1867.031,3349.234 1907.416,3390.502 1922.458,3334.117 1897.633,3327.166 	"/>
	<path fill="#C1C0BE" d="M1939.395,3338.902l-0.932,11.635v0.011l-0.075,0.879l-4.65,57.875h-23.109l6.942,10.853
		c-5.368,1.714-10.842,3.182-16.402,4.414c-1.832,0.407-3.675,0.782-5.528,1.125c-1.243,0.236-2.496,0.461-3.75,0.675l9.053-39.801
		l0.493-2.175l7.017-30.876l0.011-0.032l0.011-0.043l0.268-1.221l0.289-1.221l3.289-14.045v-0.011l1.018-4.296l0.236-1.018
		c0,0,0,0,0.011,0c0.011,0.011,0.021,0.011,0.043,0.011c1.157,0.279,19.349,4.65,25.734,7.253
		C1939.373,3338.892,1939.384,3338.892,1939.395,3338.902z"/>
	<polygon fill="#FCFDFF" points="1866.975,3349.234 1826.591,3390.502 1812.026,3330.112 1835.831,3328.142 	"/>
	<g>
		<g>
			<g>
				<path fill="#3C444F" d="M1723.635,3369.189c-0.075-0.064-0.139-0.139-0.193-0.204c31.219-27.416,72.016-35.826,72.016-35.826
					l0.086,0.15l8.442,15.524l1.339,2.464l9.203,16.938l18.352,58.667c-0.043,0-0.075-0.011-0.118-0.021
					c-3.953-0.621-7.907-1.329-11.806-2.154c-0.664-0.15-1.339-0.289-2.004-0.45c-12.599-2.861-24.759-6.985-36.233-12.331
					C1760.275,3401.651,1740.22,3387.049,1723.635,3369.189z"/>
			</g>
		</g>
	</g>
	<path fill="#C1C0BE" d="M1838.698,3427.674c-1.821-0.214-3.632-0.45-5.443-0.707c-0.129-0.021-0.246-0.043-0.375-0.064
		c-0.043,0-0.075-0.011-0.118-0.021c-3.953-0.621-7.907-1.329-11.806-2.154c-0.664-0.15-1.339-0.289-2.004-0.45l-2.818-6.557
		l7.832-12.235h-23.109l-5.775-71.866v-0.086c0.15-0.075,0.3-0.15,0.461-0.225c0.643-0.321,1.35-0.632,2.121-0.814
		c11.292-2.635,23.227-3.15,23.966-3.182c0.021,0,0.032,0,0.032,0l0.632,2.861l0.943,4.328v0.011l2.646,12.085l0.525,2.378v0.011
		l0.578,2.614v0.021l0.011,0.032l6.514,29.773l0.407,1.864l9.385,42.865C1841.762,3428.007,1840.23,3427.856,1838.698,3427.674z"/>
	<path fill="#B14A5D" d="M3353.527,1684.144c0,57.521-26.066,108.957-67.045,143.122c-32.312,26.945-73.881,43.154-119.231,43.154
		c-43.229,0-83.019-14.731-114.624-39.437c-43.615-34.091-71.652-87.187-71.652-146.84c0-102.871,83.405-186.266,186.276-186.266
		C3270.133,1497.878,3353.527,1581.273,3353.527,1684.144z"/>
	<polygon fill="#DDB99D" points="3152.984,1787.4 3117.17,1787.4 3126.516,1803.364 3168.392,1844.805 3220.571,1790.163 	"/>
	<path fill="#DBB89C" d="M3194.355,1735.862l-46.903-0.036c0,0,15.383,45.297-41.233,54.11l66.475,11.194l65.319-11.218
		C3188.567,1786.775,3194.355,1735.862,3194.355,1735.862z"/>
	<ellipse fill="#EFD4B7" cx="3170.305" cy="1656.657" rx="66.256" ry="85.914"/>
	<path fill="#DDBA9C" d="M3169.852,1571.496l0.286,171.075c-36.602,0.016-66.564-37.703-66.564-85.161
		C3103.573,1609.951,3133.25,1571.48,3169.852,1571.496z"/>
	<path fill="#67371B" d="M3199.5,1595.172c0,0-49.265,23.844-76.615,26.54c0,0-19.916,3.08-18.182,26
		c1.733,22.92,7.837,51.108,9.154,54.672c2.174,5.884,10.824,52.657-2.465,68.451c0,0,6.356-43.337-7.319-56.049
		c0,0-22.535-35.44-24.846-74.154c0,0,0.193-64.716,35.055-93.992c0,0,43.529-39.292,104.585-7.126c0,0,31.78,12.327,45.648,60.286
		c0,0,9.438,20.031-11.942,67.605s-19.646,51.811-21.572,60.093c0,0-3.66,29.084,12.134,46.611c0,0-37.2-38.465-22.37-61.771
		c14.831-23.305,16.796-52.685,16.228-57.938C3236.992,1654.4,3233.013,1600.373,3199.5,1595.172z"/>
	<path fill="#D2AE94" d="M3149.149,1744.662l56.884,31.386c0,0-13.516-12.871-11.757-39.272c0,0-22.545,12.347-46.28,0.993
		C3147.996,1737.769,3148.968,1741.817,3149.149,1744.662z"/>
	<path fill="#E8E5D1" d="M3286.482,1827.266c-32.312,26.945-73.881,43.154-119.231,43.154c-43.229,0-83.019-14.731-114.624-39.437
		l1.993-5.818c0.247-0.664,0.525-1.328,0.836-1.95c7.371-19.831,26.516-34.069,48.832-34.069l3.236,0.579l12.288,2.196l22.413,3.996
		c18.749,3.353,37.947,3.332,56.696-0.054l19.584-3.536l15.492-2.796h0.011l2.1-0.386c22.306,0,41.461,14.238,48.832,34.069
		c0.3,0.621,0.578,1.286,0.825,1.95L3286.482,1827.266z"/>
	<path fill="#F7F0E5" d="M3153.083,1651.882c0,0-7.183,8.92-16.075,8.92c-8.863,0-16.055-8.92-16.055-8.92s7.192-8.926,16.055-8.926
		C3145.899,1642.956,3153.083,1651.882,3153.083,1651.882z"/>
	<path fill="#4A4342" d="M3143.114,1651.882c0,3.366-2.726,6.091-6.1,6.091c-3.364,0-6.093-2.725-6.093-6.091
		c0-3.367,2.729-6.096,6.093-6.096C3140.388,1645.786,3143.114,1648.515,3143.114,1651.882z"/>
	<path fill="#775333" d="M3138.617,1661.1c5.884-0.714,9.924-4.572,12.955-6.821c-2.924,2.536-6.854,6.567-12.715,7.277
		c-5.681,0.691-10.736-1.992-15.488-3.495C3127.971,1659.281,3132.94,1661.79,3138.617,1661.1z"/>
	<path fill="#775333" d="M3115.775,1642.872c2.108,0.27,4.429,0.488,7.063,0.025c2.634-0.462,4.644-1.471,4.644-1.471l-0.016,0.017
		c1.781-1.019,3.916-1.78,6.336-2.157c8.482-1.324,17.104,8.168,18.781,11.404c-0.012-0.04-2.854-4.233-6.353-6.096
		c-3.598-1.916-7.123-3.024-11.389-2.359c-8.363,1.305-13.982,7.666-15.817,10.802c0.296-1.095,2.777-5.22,3.909-7.243
		c-0.477,0.15-2.896,0.811-5.519-0.226c-2.927-1.156-4.683-3.199-4.683-3.199S3113.669,1642.602,3115.775,1642.872z"/>
	<path fill="#F7F0E5" d="M3186.439,1651.882c0,0,7.183,8.92,16.074,8.92c8.863,0,16.055-8.92,16.055-8.92s-7.192-8.926-16.055-8.926
		C3193.622,1642.956,3186.439,1651.882,3186.439,1651.882z"/>
	<path fill="#4A4342" d="M3196.407,1651.882c0,3.366,2.726,6.091,6.1,6.091c3.364,0,6.092-2.725,6.092-6.091
		c0-3.367-2.729-6.096-6.092-6.096C3199.133,1645.786,3196.407,1648.515,3196.407,1651.882z"/>
	<path fill="#775333" d="M3200.904,1661.1c-5.884-0.714-9.924-4.572-12.955-6.821c2.924,2.536,6.853,6.567,12.714,7.277
		c5.681,0.691,10.736-1.992,15.489-3.495C3211.55,1659.281,3206.581,1661.79,3200.904,1661.1z"/>
	<path fill="#775333" d="M3223.745,1642.872c-2.107,0.27-4.429,0.488-7.062,0.025c-2.634-0.462-4.644-1.471-4.644-1.471l0.016,0.017
		c-1.781-1.019-3.916-1.78-6.336-2.157c-8.482-1.324-17.104,8.168-18.781,11.404c0.013-0.04,2.854-4.233,6.353-6.096
		c3.598-1.916,7.123-3.024,11.389-2.359c8.363,1.305,13.982,7.666,15.817,10.802c-0.296-1.095-2.778-5.22-3.909-7.243
		c0.477,0.15,2.895,0.811,5.519-0.226c2.927-1.156,4.683-3.199,4.683-3.199S3225.852,1642.602,3223.745,1642.872z"/>
	<g>
		<path fill="#FFFFFF" d="M3170.042,1726.835c7.64-0.086,16.979-6.721,20.41-18.197h-40.619
			C3153.359,1720.114,3162.767,1726.754,3170.042,1726.835z"/>
		<path fill="#E2415D" d="M3192.02,1707.272c-0.141-0.182-0.359-0.289-0.59-0.289h-42.585c-0.232,0-0.451,0.108-0.592,0.292
			c-0.141,0.184-0.189,0.423-0.129,0.647c3.485,13.028,13.885,20.153,21.918,20.243c8.423-0.095,18.723-7.081,22.111-20.25
			C3192.21,1707.692,3192.161,1707.454,3192.02,1707.272z M3170.042,1726.673c-7.275-0.082-16.683-6.477-20.209-18.197h40.619
			C3187.021,1720.315,3177.682,1726.587,3170.042,1726.673z"/>
		<g>
			<path fill="#F4949C" d="M3188.993,1712.456h-37.653c1.735,4.52,5.674,8.272,8.45,10.532h20.785
				C3183.945,1720.708,3187.097,1716.935,3188.993,1712.456z"/>
		</g>
	</g>
	<circle fill="#FFFFFF" cx="3139.026" cy="1650.31" r="2.171"/>
	<circle fill="#FFFFFF" cx="3204.432" cy="1650.009" r="2.17"/>
	<path fill="#B14A5D" d="M3349.242,2724.427c0,57.521-26.066,108.957-67.045,143.122c-32.312,26.945-73.881,43.154-119.231,43.154
		c-43.229,0-83.019-14.731-114.624-39.437c-43.615-34.091-71.652-87.187-71.652-146.84c0-102.871,83.405-186.265,186.276-186.265
		C3265.848,2538.162,3349.242,2621.556,3349.242,2724.427z"/>
	<polygon fill="#DDB99D" points="3148.698,2827.684 3112.885,2827.684 3122.231,2843.648 3164.107,2885.089 3216.285,2830.447 	"/>
	<path fill="#DBB89C" d="M3190.069,2776.145l-46.903-0.036c0,0,15.383,45.296-41.233,54.11l66.475,11.194l65.319-11.218
		C3184.281,2827.059,3190.069,2776.145,3190.069,2776.145z"/>
	<ellipse fill="#EFD4B7" cx="3166.02" cy="2696.941" rx="66.256" ry="85.914"/>
	<path fill="#DDBA9C" d="M3165.567,2611.78l0.286,171.075c-36.602,0.016-66.564-37.703-66.564-85.161
		S3128.964,2611.764,3165.567,2611.78z"/>
	<path fill="#67371B" d="M3195.214,2635.456c0,0-49.265,23.844-76.615,26.54c0,0-19.916,3.079-18.182,26
		c1.733,22.92,7.837,51.108,9.154,54.672c2.174,5.884,10.825,52.657-2.465,68.451c0,0,6.356-43.337-7.319-56.049
		c0,0-22.535-35.439-24.846-74.154c0,0,0.193-64.716,35.055-93.992c0,0,43.529-39.292,104.585-7.126c0,0,31.78,12.327,45.648,60.286
		c0,0,9.438,20.031-11.942,67.605s-19.646,51.811-21.572,60.093c0,0-3.66,29.084,12.134,46.611c0,0-37.2-38.465-22.37-61.771
		c14.831-23.305,16.796-52.685,16.228-57.938C3232.707,2694.683,3228.728,2640.656,3195.214,2635.456z"/>
	<path fill="#D2AE94" d="M3144.864,2784.946l56.884,31.386c0,0-13.516-12.871-11.757-39.271c0,0-22.545,12.347-46.28,0.993
		C3143.711,2778.053,3144.682,2782.1,3144.864,2784.946z"/>
	<path fill="#E8E5D1" d="M3282.197,2867.55c-32.312,26.945-73.881,43.154-119.231,43.154c-43.229,0-83.019-14.731-114.624-39.437
		l1.993-5.818c0.247-0.664,0.525-1.329,0.836-1.95c7.371-19.831,26.516-34.069,48.832-34.069l3.236,0.579l12.288,2.196l22.413,3.996
		c18.749,3.353,37.947,3.332,56.696-0.053l19.584-3.536l15.492-2.796h0.011l2.1-0.386c22.305,0,41.461,14.238,48.832,34.069
		c0.3,0.621,0.579,1.286,0.825,1.95L3282.197,2867.55z"/>
	<path fill="#F7F0E5" d="M3148.797,2692.166c0,0-7.183,8.919-16.075,8.919c-8.863,0-16.055-8.919-16.055-8.919
		s7.192-8.926,16.055-8.926C3141.614,2683.24,3148.797,2692.166,3148.797,2692.166z"/>
	<path fill="#4A4342" d="M3138.828,2692.166c0,3.366-2.726,6.091-6.1,6.091c-3.364,0-6.093-2.725-6.093-6.091
		c0-3.367,2.729-6.097,6.093-6.097C3136.103,2686.069,3138.828,2688.798,3138.828,2692.166z"/>
	<path fill="#775333" d="M3134.332,2701.383c5.883-0.714,9.924-4.572,12.955-6.821c-2.923,2.536-6.853,6.567-12.714,7.278
		c-5.681,0.691-10.736-1.992-15.488-3.495C3123.685,2699.564,3128.655,2702.074,3134.332,2701.383z"/>
	<path fill="#775333" d="M3111.49,2683.156c2.108,0.27,4.429,0.488,7.063,0.025c2.634-0.462,4.644-1.471,4.644-1.471l-0.016,0.017
		c1.781-1.019,3.916-1.78,6.336-2.157c8.482-1.324,17.104,8.168,18.781,11.404c-0.012-0.04-2.854-4.233-6.353-6.096
		c-3.598-1.916-7.123-3.024-11.389-2.359c-8.363,1.305-13.982,7.666-15.817,10.803c0.296-1.095,2.777-5.22,3.909-7.243
		c-0.477,0.15-2.896,0.811-5.519-0.226c-2.927-1.156-4.683-3.199-4.683-3.199S3109.384,2682.886,3111.49,2683.156z"/>
	<path fill="#F7F0E5" d="M3182.153,2692.166c0,0,7.183,8.919,16.075,8.919c8.863,0,16.055-8.919,16.055-8.919
		s-7.192-8.926-16.055-8.926C3189.336,2683.24,3182.153,2692.166,3182.153,2692.166z"/>
	<path fill="#4A4342" d="M3192.122,2692.166c0,3.366,2.726,6.091,6.1,6.091c3.364,0,6.092-2.725,6.092-6.091
		c0-3.367-2.729-6.097-6.092-6.097C3194.848,2686.069,3192.122,2688.798,3192.122,2692.166z"/>
	<path fill="#775333" d="M3196.618,2701.383c-5.884-0.714-9.924-4.572-12.955-6.821c2.924,2.536,6.853,6.567,12.714,7.278
		c5.681,0.691,10.736-1.992,15.489-3.495C3207.265,2699.564,3202.295,2702.074,3196.618,2701.383z"/>
	<path fill="#775333" d="M3219.46,2683.156c-2.107,0.27-4.429,0.488-7.062,0.025c-2.634-0.462-4.644-1.471-4.644-1.471l0.016,0.017
		c-1.781-1.019-3.916-1.78-6.336-2.157c-8.482-1.324-17.104,8.168-18.781,11.404c0.013-0.04,2.854-4.233,6.353-6.096
		c3.598-1.916,7.123-3.024,11.389-2.359c8.363,1.305,13.983,7.666,15.817,10.803c-0.296-1.095-2.778-5.22-3.909-7.243
		c0.478,0.15,2.896,0.811,5.519-0.226c2.927-1.156,4.683-3.199,4.683-3.199S3221.566,2682.886,3219.46,2683.156z"/>
	<g>
		<path fill="#FFFFFF" d="M3165.757,2767.119c7.64-0.086,16.979-6.721,20.41-18.197h-40.619
			C3149.073,2760.398,3158.481,2767.037,3165.757,2767.119z"/>
		<path fill="#E2415D" d="M3187.734,2747.556c-0.141-0.183-0.359-0.289-0.59-0.289h-42.585c-0.232,0-0.451,0.108-0.592,0.292
			c-0.141,0.184-0.189,0.423-0.129,0.647c3.485,13.028,13.885,20.153,21.918,20.243c8.423-0.095,18.723-7.081,22.111-20.25
			C3187.925,2747.976,3187.875,2747.738,3187.734,2747.556z M3165.757,2766.957c-7.275-0.082-16.683-6.477-20.209-18.197h40.619
			C3182.736,2760.599,3173.397,2766.871,3165.757,2766.957z"/>
		<g>
			<path fill="#F4949C" d="M3184.707,2752.74h-37.654c1.735,4.52,5.675,8.272,8.45,10.532h20.785
				C3179.66,2760.992,3182.811,2757.219,3184.707,2752.74z"/>
		</g>
	</g>
	<circle fill="#FFFFFF" cx="3134.741" cy="2690.594" r="2.171"/>
	<circle fill="#FFFFFF" cx="3200.147" cy="2690.293" r="2.17"/>
	<path fill="#B14A5D" d="M3358.884,3763.64c0,57.521-26.066,108.957-67.045,143.122c-32.312,26.945-73.88,43.154-119.231,43.154
		c-43.229,0-83.019-14.731-114.624-39.437c-43.615-34.091-71.652-87.187-71.652-146.84c0-102.871,83.405-186.265,186.276-186.265
		C3275.49,3577.375,3358.884,3660.769,3358.884,3763.64z"/>
	<polygon fill="#DDB99D" points="3158.341,3866.896 3122.527,3866.896 3131.873,3882.861 3173.749,3924.302 3225.927,3869.659 	"/>
	<path fill="#DBB89C" d="M3199.711,3815.358l-46.903-0.036c0,0,15.383,45.296-41.233,54.11l66.475,11.194l65.319-11.218
		C3193.924,3866.271,3199.711,3815.358,3199.711,3815.358z"/>
	<ellipse fill="#EFD4B7" cx="3175.662" cy="3736.154" rx="66.256" ry="85.914"/>
	<path fill="#DDBA9C" d="M3175.209,3650.992l0.286,171.075c-36.602,0.016-66.564-37.703-66.564-85.161
		S3138.606,3650.977,3175.209,3650.992z"/>
	<path fill="#67371B" d="M3204.856,3674.668c0,0-49.265,23.844-76.615,26.54c0,0-19.916,3.08-18.182,26
		c1.734,22.92,7.837,51.108,9.154,54.672c2.174,5.884,10.824,52.657-2.465,68.45c0,0,6.356-43.336-7.319-56.049
		c0,0-22.535-35.439-24.846-74.154c0,0,0.193-64.716,35.054-93.992c0,0,43.529-39.292,104.585-7.126c0,0,31.78,12.327,45.648,60.286
		c0,0,9.438,20.031-11.942,67.605c-21.379,47.574-19.646,51.811-21.572,60.093c0,0-3.66,29.084,12.134,46.611
		c0,0-37.201-38.465-22.37-61.771s16.796-52.685,16.228-57.938C3242.349,3733.896,3238.37,3679.869,3204.856,3674.668z"/>
	<path fill="#D2AE94" d="M3154.506,3824.158l56.884,31.386c0,0-13.516-12.871-11.757-39.272c0,0-22.545,12.347-46.28,0.993
		C3153.353,3817.265,3154.324,3821.313,3154.506,3824.158z"/>
	<path fill="#E8E5D1" d="M3291.839,3906.762c-32.312,26.945-73.88,43.154-119.231,43.154c-43.229,0-83.019-14.731-114.624-39.437
		l1.993-5.818c0.246-0.664,0.525-1.329,0.835-1.95c7.371-19.831,26.516-34.069,48.832-34.069l3.236,0.579l12.288,2.196l22.413,3.996
		c18.749,3.353,37.947,3.332,56.696-0.054l19.584-3.535l15.492-2.796h0.011l2.1-0.386c22.306,0,41.461,14.238,48.832,34.069
		c0.3,0.621,0.579,1.286,0.825,1.95L3291.839,3906.762z"/>
	<path fill="#F7F0E5" d="M3158.439,3731.379c0,0-7.183,8.919-16.074,8.919c-8.863,0-16.055-8.919-16.055-8.919
		s7.192-8.926,16.055-8.926C3151.256,3722.452,3158.439,3731.379,3158.439,3731.379z"/>
	<path fill="#4A4342" d="M3148.47,3731.378c0,3.366-2.726,6.091-6.1,6.091c-3.364,0-6.092-2.725-6.092-6.091
		c0-3.367,2.729-6.096,6.092-6.096C3145.745,3725.281,3148.47,3728.011,3148.47,3731.378z"/>
	<path fill="#775333" d="M3143.974,3740.596c5.884-0.714,9.924-4.572,12.955-6.821c-2.924,2.536-6.853,6.567-12.714,7.278
		c-5.681,0.691-10.736-1.992-15.488-3.495C3133.327,3738.777,3138.297,3741.286,3143.974,3740.596z"/>
	<path fill="#775333" d="M3121.132,3722.368c2.107,0.27,4.429,0.488,7.062,0.025c2.634-0.462,4.645-1.471,4.645-1.471l-0.016,0.017
		c1.781-1.019,3.916-1.78,6.336-2.157c8.482-1.324,17.104,8.168,18.781,11.404c-0.013-0.04-2.854-4.233-6.353-6.096
		c-3.598-1.916-7.123-3.024-11.389-2.359c-8.363,1.305-13.982,7.666-15.817,10.803c0.296-1.095,2.778-5.22,3.909-7.243
		c-0.477,0.15-2.895,0.811-5.519-0.226c-2.926-1.156-4.683-3.199-4.683-3.199S3119.026,3722.098,3121.132,3722.368z"/>
	<path fill="#F7F0E5" d="M3191.795,3731.379c0,0,7.183,8.919,16.074,8.919c8.863,0,16.055-8.919,16.055-8.919
		s-7.192-8.926-16.055-8.926C3198.978,3722.452,3191.795,3731.379,3191.795,3731.379z"/>
	<path fill="#4A4342" d="M3201.764,3731.378c0,3.366,2.726,6.091,6.1,6.091c3.364,0,6.093-2.725,6.093-6.091
		c0-3.367-2.729-6.096-6.093-6.096C3204.49,3725.281,3201.764,3728.011,3201.764,3731.378z"/>
	<path fill="#775333" d="M3206.26,3740.596c-5.884-0.714-9.924-4.572-12.955-6.821c2.923,2.536,6.853,6.567,12.714,7.278
		c5.681,0.691,10.736-1.992,15.488-3.495C3216.907,3738.777,3211.938,3741.286,3206.26,3740.596z"/>
	<path fill="#775333" d="M3229.102,3722.368c-2.108,0.27-4.429,0.488-7.063,0.025c-2.634-0.462-4.644-1.471-4.644-1.471l0.016,0.017
		c-1.781-1.019-3.916-1.78-6.336-2.157c-8.482-1.324-17.104,8.168-18.781,11.404c0.012-0.04,2.854-4.233,6.353-6.096
		c3.598-1.916,7.123-3.024,11.389-2.359c8.363,1.305,13.982,7.666,15.817,10.803c-0.296-1.095-2.777-5.22-3.909-7.243
		c0.477,0.15,2.896,0.811,5.519-0.226c2.927-1.156,4.683-3.199,4.683-3.199S3231.208,3722.098,3229.102,3722.368z"/>
	<g>
		<path fill="#FFFFFF" d="M3175.399,3806.331c7.64-0.086,16.979-6.721,20.41-18.197h-40.619
			C3158.716,3799.61,3168.124,3806.25,3175.399,3806.331z"/>
		<path fill="#E2415D" d="M3197.376,3786.768c-0.141-0.183-0.359-0.289-0.59-0.289h-42.585c-0.232,0-0.451,0.108-0.592,0.292
			c-0.141,0.184-0.189,0.423-0.129,0.647c3.485,13.028,13.886,20.153,21.918,20.243c8.424-0.095,18.724-7.081,22.111-20.25
			C3197.567,3787.188,3197.518,3786.95,3197.376,3786.768z M3175.399,3806.169c-7.275-0.082-16.683-6.477-20.209-18.197h40.619
			C3192.378,3799.811,3183.039,3806.083,3175.399,3806.169z"/>
		<g>
			<path fill="#F4949C" d="M3194.35,3791.952h-37.654c1.735,4.52,5.675,8.272,8.45,10.532h20.785
				C3189.302,3800.204,3192.453,3796.431,3194.35,3791.952z"/>
		</g>
	</g>
	<circle fill="#FFFFFF" cx="3144.383" cy="3729.806" r="2.171"/>
	<circle fill="#FFFFFF" cx="3209.789" cy="3729.505" r="2.171"/>
	<path fill="#B8926E" d="M3173.076,1687.597c0,0-1.186,1.387-2.938,1.369c-1.752,0.019-2.938-1.369-2.938-1.369
		c-4.125-2.523-4.745,0.815-4.745,0.815c0.218,1.974,4.841,1.181,4.841,1.181c0.955,0.947,1.962,1.192,2.842,1.133
		c0.881,0.058,1.887-0.187,2.842-1.133c0,0,4.623,0.794,4.841-1.181C3177.82,1688.412,3177.2,1685.074,3173.076,1687.597z"/>
	<path fill="#B8926E" d="M3168.79,2723.336c0,0-1.186,1.388-2.938,1.369c-1.752,0.019-2.938-1.369-2.938-1.369
		c-4.125-2.523-4.745,0.815-4.745,0.815c0.218,1.974,4.841,1.181,4.841,1.181c0.955,0.947,1.962,1.192,2.842,1.133
		c0.881,0.058,1.887-0.187,2.842-1.133c0,0,4.623,0.794,4.841-1.181C3173.535,2724.151,3172.915,2720.813,3168.79,2723.336z"/>
	<path fill="#B8926E" d="M3178.433,3762.549c0,0-1.186,1.388-2.938,1.369c-1.753,0.019-2.938-1.369-2.938-1.369
		c-4.125-2.523-4.744,0.815-4.744,0.815c0.218,1.974,4.841,1.181,4.841,1.181c0.955,0.947,1.962,1.192,2.842,1.133
		c0.88,0.058,1.887-0.187,2.842-1.133c0,0,4.623,0.794,4.841-1.181C3183.177,3763.363,3182.557,3760.026,3178.433,3762.549z"/>
	<path fill="#FBF8EC" d="M3161.906,1160H2314c-6.075,0-11-4.925-11-11v-10c0-6.075,4.925-11,11-11h847.906c6.075,0,11,4.925,11,11
		v10C3172.906,1155.075,3167.982,1160,3161.906,1160z"/>
	<path fill="#FBF8EC" d="M3161.906,1221.641H2314c-6.075,0-11-4.925-11-11v-10c0-6.075,4.925-11,11-11h847.906
		c6.075,0,11,4.925,11,11v10C3172.906,1216.716,3167.982,1221.641,3161.906,1221.641z"/>
	<path fill="#FBF8EC" d="M2898.826,1283.281h-586.653c-5.066,0-9.174-4.107-9.174-9.174v-13.653c0-5.066,4.107-9.173,9.174-9.173
		h586.653c5.066,0,9.174,4.107,9.174,9.173v13.653C2908,1279.174,2903.893,1283.281,2898.826,1283.281z"/>
	<path fill="#FBF8EC" d="M2568.728,1600.459H1830.74c-5.673,0-10.272-4.599-10.272-10.272v-11.457
		c0-5.673,4.599-10.272,10.272-10.272h737.989c5.673,0,10.272,4.599,10.272,10.272v11.457
		C2579,1595.86,2574.401,1600.459,2568.728,1600.459z"/>
	<path fill="#FBF8EC" d="M2679.375,1662.099h-847.906c-6.075,0-11-4.925-11-11v-10c0-6.075,4.925-11,11-11h847.906
		c6.075,0,11,4.925,11,11v10C2690.375,1657.175,2685.45,1662.099,2679.375,1662.099z"/>
	<path fill="#FBF8EC" d="M2449.576,1723.74h-619.683c-5.205,0-9.424-4.219-9.424-9.424v-13.151c0-5.205,4.219-9.424,9.424-9.424
		h619.683c5.205,0,9.424,4.219,9.424,9.424v13.151C2459,1719.521,2454.781,1723.74,2449.576,1723.74z"/>
	<path fill="#FBF8EC" d="M3039.571,3189.115h-737.989c-5.673,0-10.272-4.599-10.272-10.272v-11.457
		c0-5.673,4.599-10.272,10.272-10.272h737.989c5.673,0,10.272,4.599,10.272,10.272v11.457
		C3049.843,3184.517,3045.244,3189.115,3039.571,3189.115z"/>
	<path fill="#FBF8EC" d="M3150.217,3250.756h-847.907c-6.075,0-11-4.925-11-11v-10c0-6.075,4.925-11,11-11h847.907
		c6.075,0,11,4.925,11,11v10C3161.217,3245.831,3156.292,3250.756,3150.217,3250.756z"/>
	<path fill="#FBF8EC" d="M2543.013,3312.396h-245.716c-3.306,0-5.987-2.68-5.987-5.987v-20.026c0-3.307,2.681-5.987,5.987-5.987
		h245.716c3.306,0,5.987,2.68,5.987,5.987v20.026C2549,3309.716,2546.32,3312.396,2543.013,3312.396z"/>
	<path fill="#FBF8EC" d="M2690.16,3740.838h-847.907c-6.075,0-11-4.925-11-11v-10c0-6.075,4.925-11,11-11h847.907
		c6.075,0,11,4.925,11,11v10C2701.16,3735.914,2696.235,3740.838,2690.16,3740.838z"/>
	<path fill="#FBF8EC" d="M2690.16,3802.479h-847.907c-6.075,0-11-4.925-11-11v-10c0-6.075,4.925-11,11-11h847.907
		c6.075,0,11,4.925,11,11v10C2701.16,3797.554,2696.235,3802.479,2690.16,3802.479z"/>
	<path fill="#FBF8EC" d="M1968.56,3864.12h-132.866c-2.452,0-4.44-1.988-4.44-4.44v-23.119c0-2.452,1.988-4.44,4.44-4.44h132.866
		c2.452,0,4.44,1.988,4.44,4.44v23.119C1973,3862.132,1971.012,3864.12,1968.56,3864.12z"/>
	<path fill="#FBF8EC" d="M3171.021,2175.758h-868.579c-6.148,0-11.132-4.984-11.132-11.132v-9.737
		c0-6.148,4.984-11.132,11.132-11.132h868.579c6.148,0,11.132,4.984,11.132,11.132v9.737
		C3182.153,2170.775,3177.169,2175.758,3171.021,2175.758z"/>
	<path fill="#FBF8EC" d="M3038.08,2237.399h-736.508c-5.667,0-10.262-4.594-10.262-10.261v-11.477
		c0-5.667,4.594-10.261,10.262-10.261h736.508c5.667,0,10.261,4.594,10.261,10.261v11.477
		C3048.342,2232.805,3043.747,2237.399,3038.08,2237.399z"/>
	<path fill="#FBF8EC" d="M2689.711,2686.265h-868.579c-6.148,0-11.131-4.984-11.131-11.132v-9.737
		c0-6.148,4.984-11.132,11.131-11.132h868.579c6.148,0,11.132,4.984,11.132,11.132v9.737
		C2700.843,2681.281,2695.859,2686.265,2689.711,2686.265z"/>
	<path fill="#FBF8EC" d="M2181.26,2747.906h-364.003c-4.007,0-7.256-3.249-7.256-7.256v-17.488c0-4.008,3.249-7.256,7.256-7.256
		h364.003c4.007,0,7.256,3.249,7.256,7.256v17.488C2188.515,2744.657,2185.267,2747.906,2181.26,2747.906z"/>
	<path fill="#FBF8EC" d="M2941.986,2299.04h-641.092c-5.292,0-9.583-4.291-9.583-9.583v-12.833c0-5.293,4.291-9.583,9.583-9.583
		h641.092c5.293,0,9.583,4.291,9.583,9.583v12.833C2951.569,2294.749,2947.279,2299.04,2941.986,2299.04z"/>
</g>
</svg>
