<?xml version="1.0" encoding="utf-8"?>
<!-- Generator: Adobe Illustrator 17.0.0, SVG Export Plug-In . SVG Version: 6.00 Build 0)  -->
<!DOCTYPE svg PUBLIC "-//W3C//DTD SVG 1.1//EN" "http://www.w3.org/Graphics/SVG/1.1/DTD/svg11.dtd">
<svg version="1.1" xmlns="http://www.w3.org/2000/svg" xmlns:xlink="http://www.w3.org/1999/xlink" x="0px" y="0px" width="800px"
	 height="800px" viewBox="0 0 800 800" enable-background="new 0 0 800 800" xml:space="preserve">
<g id="background" display="none">
</g>
<g id="object">
	<g display="none">
		<g display="inline">
			<path fill="#549465" d="M386.827,41.548L386.827,41.548"/>
		</g>
	</g>
	<g display="none">
		<path display="inline" fill="#FAAE3E" d="M59.735,579.03"/>
		<g display="inline">
			<defs>
				<path id="SVGID_1_" d="M59.735,579.03"/>
			</defs>
			<clipPath id="SVGID_2_">
				<use xlink:href="#SVGID_1_"  overflow="visible"/>
			</clipPath>
		</g>
	</g>
	<g>
		<circle fill="none" cx="351.243" cy="425.278" r="314.891"/>
		<circle fill="#0C8485" cx="351.243" cy="425.278" r="314.891"/>
		<path fill="#D64329" d="M554.454,642.661c-5.334,1.482-10.961,2.306-16.823,2.444c-25.216,0.591-53.991-11.505-87.974-36.98
			c-22.229-16.658-26.696-25.566-27.396-26.271c-13.442-13.531-13.372-35.397,0.15-48.842c13.525-13.432,35.373-13.372,48.821,0.132
			l0,0c0.148,0.151,2.997,7.381,22.124,21.405c22.59,16.567,36.154,20.935,41.27,21.469
			c58.42-66.238,119.268-246.871,119.268-246.871l66.603,18.097c0,0-68.596,202.106-136.264,276.917
			C576.037,633.219,565.93,639.47,554.454,642.661z"/>
		<rect x="322.171" y="479.96" fill="#E4D8B9" width="82.442" height="76.115"/>
		<g>
			<path fill="#F4DDC0" d="M486.856,376.352c0,75.156-38.209,136.084-124.47,136.084c-86.259,0-124.47-60.928-124.47-136.084
				c0-75.158,23.258-136.084,124.47-136.084C463.596,240.268,486.856,301.194,486.856,376.352z"/>
			<path fill="#081928" d="M461.817,288.994c15.992-10.788,29.921-63.235,18.416-80.08c-10.178,14.449-18.517,22.318-30.616,23.726
				c2.585-3.908,3.76-6.342,4.11-19.148c-6.34,9.871-32.864,11.357-45.977,6.975c-46.441-15.51-118.895-45.342-172.024,32.252
				c-35.985,52.55-52.962,133.547,18.515,199.484c0,0,45.219,7.758,46.152-69.37c0.94-77.127,11.841-59.218,38.223-100.621
				C365.001,240.806,445.836,299.784,461.817,288.994z"/>
			<path fill="#F4DDC0" d="M328.802,373.499c0,20.407-12.717,36.954-28.408,36.954c-15.683,0-28.404-16.547-28.404-36.954
				c0-20.407,12.721-36.949,28.404-36.949C316.085,336.55,328.802,353.092,328.802,373.499z"/>
			<path fill="#C6BDA3" d="M380.291,383.663c-11.82,0-22.711-4.792-23.429-5.116c-2.127-0.954-3.077-3.452-2.121-5.579
				c0.956-2.125,3.456-3.075,5.573-2.123l0,0c0.229,0.101,23.095,10.12,34.383-0.425c1.704-1.587,4.372-1.5,5.967,0.204
				c1.591,1.704,1.5,4.376-0.204,5.967C394.712,381.958,387.335,383.663,380.291,383.663z"/>
			<g>
				<g>
					<path fill="#081928" d="M426.504,376.449c-1.144,16.388,6.206,30.253,16.413,30.964c2.834,0.198,12.317,0.859,12.317,0.859
						l4.137-59.358c0,0-2.113-0.149-12.321-0.858C436.845,347.344,427.644,360.057,426.504,376.449z"/>
					<path fill="#102F41" d="M438.826,377.306c-1.144,16.39,6.206,30.255,16.408,30.966c10.209,0.709,19.403-12.002,20.547-28.39
						c1.144-16.392-6.206-30.257-16.411-30.968C449.162,348.201,439.966,360.914,438.826,377.306z"/>
					<path fill="#081928" d="M455.418,365.238l67.887-13.28l3.399,48.098l-73.12-8.5c0,0-3.636-4.471-3.271-13.733
						C450.675,368.563,455.418,365.238,455.418,365.238z"/>
					<path fill="#102F41" d="M524.541,347.781c-11.06,5.307-15.295,45.981,3.259,56.276c10.196,0.711,74.664,13.358,74.664,13.358
						l-3.929-88.085C598.534,329.33,540.164,340.279,524.541,347.781z"/>
					<path fill="#081928" d="M745.376,302.535l-139.877,20.885c0,0-21.763,5.431-23.214,50.278
						c-1.521,47.076,35.725,50.161,35.725,50.161l121.894,12.195L745.376,302.535z"/>
				</g>
				<path fill="#EEEFEF" d="M783.047,370.865c-1.154,35.806-20.23,65.929-42.543,65.207c-22.312-0.72-39.404-32.013-38.244-67.817
					c1.156-35.803,20.232-65.929,42.541-65.207C767.106,303.768,784.203,335.064,783.047,370.865z"/>
				<path fill="#0F3041" d="M744.026,302.896v14.774l0.305,0.004c5.211,0.169,11.027,5.116,15.559,13.232
					c5.86,10.493,8.949,24.884,8.475,39.485c-0.93,28.757-15.318,51.06-27.079,51.06l-0.309-0.004
					c-5.291-0.171-10.963-4.994-15.564-13.232c-5.86-10.493-8.949-24.884-8.477-39.482c0.928-28.754,15.322-51.06,27.087-51.062
					L744.026,302.896 M744.022,302.896c-22.023,0.002-40.709,29.896-41.851,65.36c-1.16,35.88,15.97,67.235,38.331,67.957
					c0.264,0.008,0.523,0.012,0.785,0.012c22.017,0,40.701-29.898,41.845-65.358c1.165-35.882-15.969-67.237-38.324-67.959
					C744.543,302.9,744.284,302.896,744.022,302.896L744.022,302.896z"/>
			</g>
			<path fill="#EFE5CE" d="M544.175,422.228c0.319-1.527-1.884-17.425,5.052-34.892c9.514-23.96,5.149-40.398,13.791-56.905
				c8.644-16.505,28.286-23.315,37.745-14.45c9.458,8.865-16.815,6.167-18.061,18.148c39.155-24.445,49.819-33.932,64.137-28.118
				c4.508,1.83,2.206,6.332,1.723,7.418c-1.793,0.381-4.91,0.641-9.079,1.358c-8.195,1.41-31.055,19.517-31.055,19.517
				s43.308-19.37,45.794-8.514c1.037,4.539-1.61,7.739-6.462,8.1c-4.852,0.361-26.242,7.552-37.518,14.424
				c13.568-3.524,37.477-11.893,41.768-4.199c2.362,4.242,2.578,9.66-5.348,9.66c-7.927,0-25.828,7.933-31.995,10.427
				c13.566,0,28.188-7.385,33.934-1.414c5.864,6.099,1.587,9.605-3.407,9.605c-4.992,0-16.248,3.51-23.703,5.571
				c-4.578,1.27-8.593,3.836-10.978,9.372c-6.472,15.021-6.67,13.166-11.128,17.268c-4.464,4.106-11.017,10.283-12.119,14.801
				c-0.058,0.256-15.339,13.412-15.339,13.412L544.175,422.228z"/>
			<path fill="#081928" d="M402.087,348.436c-0.243,0-0.488-0.039-0.732-0.126c-27.186-9.533-42.974-2.022-43.127-1.944
				c-1.096,0.536-2.422,0.087-2.962-1.008c-0.538-1.095-0.089-2.422,1.008-2.962c0.703-0.35,17.621-8.407,46.546,1.742
				c1.15,0.404,1.758,1.665,1.356,2.817C403.853,347.868,403.002,348.436,402.087,348.436z"/>
			<path fill="#081928" d="M475.332,351.441c-0.243,0-0.493-0.039-0.732-0.126c-27.188-9.535-42.972-2.02-43.124-1.942
				c-1.101,0.538-2.424,0.083-2.966-1.008c-0.54-1.099-0.089-2.426,1.008-2.964c0.703-0.348,17.62-8.407,46.548,1.74
				c1.15,0.406,1.758,1.668,1.356,2.818C477.1,350.871,476.245,351.441,475.332,351.441z"/>
		</g>
		<path fill="#C6BDA3" d="M420.109,461.828c-15.199,0-29.29-4.65-30.216-4.961c-2.21-0.742-3.397-3.135-2.655-5.344
			c0.744-2.21,3.137-3.399,5.345-2.657c0.319,0.107,32.19,10.598,48.244-0.649c1.915-1.336,4.545-0.87,5.88,1.037
			c1.336,1.91,0.872,4.543-1.037,5.88C438.418,460.21,429.071,461.828,420.109,461.828z"/>
		<g>
			<defs>
				<circle id="SVGID_3_" cx="351.243" cy="425.278" r="314.891"/>
			</defs>
			<clipPath id="SVGID_4_">
				<use xlink:href="#SVGID_3_"  overflow="visible"/>
			</clipPath>
			<path clip-path="url(#SVGID_4_)" fill="#D64329" d="M483.032,743.766H258.553V522.979h63.801c0,0,15.745,17.913,45.181,17.913
				c29.437,0,37.263-17.913,37.263-17.913h78.233V743.766z"/>
		</g>
		<path fill="#F05C42" d="M357.522,645.157c-14.082,0-58.08-15.003-83.994-48.659c-16.946-22.006-18.859-31.788-19.35-32.65
			c-9.324-16.639-3.399-37.685,13.241-47.014c16.631-9.316,37.044-5.12,49.384,14.438c9.322,14.776,9.322,15.304,13.191,18.995
			c20.267,19.339,30.713,18.354,36.049,19.036c74.033-48.151,160.047-158.356,166.861-169.633
			c6.808-11.276,72.423,9.827,66.582,17.795c-5.847,7.968-113.315,157.584-198.561,211.519
			C390.6,635.515,371.603,645.157,357.522,645.157z"/>
	</g>
</g>
</svg>
