<?xml version="1.0" encoding="utf-8"?>
<!-- Generator: Adobe Illustrator 19.0.0, SVG Export Plug-In . SVG Version: 6.00 Build 0)  -->
<svg version="1.1" id="Layer_1" xmlns="http://www.w3.org/2000/svg" xmlns:xlink="http://www.w3.org/1999/xlink" x="0px" y="0px"
	 viewBox="0 0 180 180" enable-background="new 0 0 180 180" xml:space="preserve">
<g id="XMLID_91_">
	<defs>
		<circle id="XMLID_79_" cx="90.3" cy="90" r="90"/>
	</defs>
	<clipPath id="XMLID_103_">
		<use xlink:href="#XMLID_79_"  overflow="visible"/>
	</clipPath>
	<rect id="XMLID_81_" x="-35.3" y="-27" clip-path="url(#XMLID_103_)" width="235.8" height="60.7"/>
	<rect id="XMLID_99_" x="-35.3" y="145" clip-path="url(#XMLID_103_)" fill="#DE5833" width="235.8" height="8"/>
	<rect id="XMLID_100_" x="-35.3" y="153" clip-path="url(#XMLID_103_)" fill="#F7F7F7" width="235.8" height="30"/>
	<g id="XMLID_98_" clip-path="url(#XMLID_103_)">


		<g id="XMLID_113_">
			<rect id="XMLID_122_" x="-35.3" y="34" fill="#F2F2F2" width="235.8" height="111"/>
		</g>
	</g>
	<path id="XMLID_83_" clip-path="url(#XMLID_103_)" fill="#FFFFFF" d="M87.8,12.3h2.5v2.7h-2.5v4.4h-3.3v-4.4h-8.3l-0.1-2l8.3-13.4
		h3.4V12.3z M79.4,12.3h5.1V4.2l-0.1,0L84.2,5L79.4,12.3z"/>
	<path id="XMLID_92_" clip-path="url(#XMLID_103_)" fill="#FFFFFF" d="M113.1,19.3h-12.7V17l6.2-7.1c1-1.2,1.7-2.2,2.1-2.9
		c0.4-0.8,0.6-1.5,0.6-2.2c0-0.8-0.2-1.5-0.7-2.1c-0.5-0.5-1.1-0.8-2-0.8c-1,0-1.8,0.3-2.3,1c-0.5,0.7-0.8,1.5-0.8,2.5h-3.2l0-0.1
		c0-1.7,0.5-3.1,1.7-4.3s2.7-1.8,4.7-1.8c1.9,0,3.4,0.5,4.4,1.5c1.1,1,1.6,2.3,1.6,4c0,1.1-0.3,2.2-0.9,3.1c-0.6,1-1.6,2.3-2.9,3.9
		l-4.2,4.8l0,0.1h8.5V19.3z"/>
	<path id="XMLID_94_" clip-path="url(#XMLID_103_)" fill="#FFFFFF" d="M116.5,10.6l1.1-11h10.4v2.9h-7.7l-0.6,5
		c0.4-0.3,0.9-0.5,1.4-0.7c0.5-0.2,1.1-0.3,1.8-0.3c1.8,0,3.3,0.6,4.3,1.7s1.5,2.8,1.5,4.8c0,2-0.5,3.5-1.6,4.8
		c-1.1,1.2-2.7,1.8-4.8,1.8c-1.7,0-3.2-0.5-4.4-1.4c-1.2-0.9-1.8-2.3-1.7-4l0-0.1l3.1-0.1c0,0.9,0.3,1.6,0.8,2.2
		c0.6,0.5,1.3,0.8,2.2,0.8c1,0,1.8-0.3,2.3-1c0.5-0.7,0.8-1.7,0.8-2.9c0-1.2-0.3-2.1-0.8-2.9s-1.3-1.1-2.4-1.1c-0.9,0-1.6,0.1-2,0.4
		c-0.4,0.3-0.8,0.7-1,1.3L116.5,10.6z"/>
	<path id="XMLID_86_" clip-path="url(#XMLID_103_)" fill="#FFFFFF" d="M60.3-9.4h-17c-0.6,0-1,0.4-1,1v29.7c0,0.6,0.4,1,1,1h17
		c0.6,0,1-0.4,1-1V-8.4C61.3-8.9,60.9-9.4,60.3-9.4z M47,19.3L51,9l-6.7-0.2L57-4.8L52.5,6.5h6L47,19.3z"/>
	<circle id="XMLID_80_" clip-path="url(#XMLID_103_)" fill="#FFFFFF" cx="94.8" cy="5.8" r="1.8"/>
	<circle id="XMLID_89_" clip-path="url(#XMLID_103_)" fill="#FFFFFF" cx="94.8" cy="17.2" r="1.8"/>
	<g id="XMLID_82_" clip-path="url(#XMLID_103_)">
		<g id="XMLID_111_">
			<path id="XMLID_117_" fill="#FFFFFF" d="M129,130H-37c-1.1,0-2-0.9-2-2V50c0-1.1,0.9-2,2-2h166c1.1,0,2,0.9,2,2v78
				C131,129.1,130.1,130,129,130z"/>
			<path id="XMLID_116_" fill="none" stroke="#ABABAB" stroke-miterlimit="10" d="M129,130H-37c-1.1,0-2-0.9-2-2V50c0-1.1,0.9-2,2-2
				h166c1.1,0,2,0.9,2,2v78C131,129.1,130.1,130,129,130z"/>
		</g>
	</g>
	<path id="XMLID_101_" clip-path="url(#XMLID_103_)" fill="#5A5B5B" d="M94,77c0,2.2-1.8,4-4,4s-4-1.8-4-4s1.8-4,4-4S94,74.8,94,77z
		 M90,85c-2.2,0-4,1.8-4,4s1.8,4,4,4s4-1.8,4-4S92.2,85,90,85z M90,97c-2.2,0-4,1.8-4,4s1.8,4,4,4s4-1.8,4-4S92.2,97,90,97z"/>
</g>
</svg>
