<?xml version="1.0" encoding="utf-8"?>
<!-- Generator: Adobe Illustrator 17.0.0, SVG Export Plug-In . SVG Version: 6.00 Build 0)  -->
<!DOCTYPE svg PUBLIC "-//W3C//DTD SVG 1.1//EN" "http://www.w3.org/Graphics/SVG/1.1/DTD/svg11.dtd">
<svg version="1.1" id="Layer_1" xmlns="http://www.w3.org/2000/svg" xmlns:xlink="http://www.w3.org/1999/xlink" x="0px" y="0px"
	 width="5000px" height="5000px" viewBox="0 0 5000 5000" enable-background="new 0 0 5000 5000" xml:space="preserve">
<rect x="-0.333" y="-0.167" display="none" fill="#D14544" width="5000.333" height="5000.001"/>
<polygon display="none" fill="#B73B3B" points="510.113,1590.708 566.497,1343.328 1343.179,1848.068 1523.703,1343.328 
	2344.248,1891.548 2480.758,1343.328 3296.218,1848.068 3437.792,1343.328 4274.529,1891.548 4394.803,1343.328 5000,1696.153 
	5000,4999.834 2212.186,4999.834 906.409,4147.891 1231.107,3066.254 337.466,2048.978 "/>
<g>
	<g>
		<polygon fill="#E99E22" points="4509.442,1575.604 4765.789,1612.854 4580.296,1793.662 4624.086,2048.978 4394.804,1928.435 
			4394.804,1343.328 		"/>
		<polygon fill="#FBAF17" points="4023.825,1612.854 4280.165,1575.604 4394.804,1343.328 4394.804,1928.435 4165.526,2048.978 
			4209.317,1793.662 		"/>
	</g>
	<g>
		<polygon fill="#E99E22" points="3437.795,1343.328 3552.433,1575.604 3808.77,1612.854 3623.279,1793.662 3667.069,2048.978 
			3437.795,1928.435 3437.795,1928.445 3437.795,1343.328 		"/>
		<polygon fill="#FBAF17" points="3252.309,1793.662 3066.807,1612.854 3323.149,1575.604 3437.795,1343.328 3437.795,1928.445 
			3208.517,2048.978 		"/>
	</g>
	<g>
		<polygon fill="#E99E22" points="2480.773,1343.328 2595.407,1575.604 2851.754,1612.854 2666.265,1793.662 2710.057,2048.978 
			2480.773,1928.435 2480.773,1928.445 2480.773,1343.328 		"/>
		<polygon fill="#FBAF17" points="2295.28,1793.662 2109.792,1612.854 2366.135,1575.604 2480.773,1343.328 2480.773,1928.445 
			2251.492,2048.978 		"/>
	</g>
	<g>
		<polygon fill="#E99E22" points="1638.397,1575.604 1894.736,1612.854 1709.25,1793.662 1753.04,2048.978 1523.766,1928.435 
			1523.766,1343.328 		"/>
		<polygon fill="#FBAF17" points="1152.777,1612.854 1409.118,1575.604 1523.766,1343.328 1523.766,1928.435 1294.481,2048.978 
			1338.263,1793.662 		"/>
	</g>
	<g>
		<polygon fill="#E99E22" points="681.377,1575.604 937.72,1612.854 752.232,1793.662 796.022,2048.978 566.747,1928.435 
			566.747,1343.328 		"/>
		<polygon fill="#FBAF17" points="195.761,1612.854 452.105,1575.604 566.747,1343.328 566.747,1928.435 337.466,2048.978 
			381.25,1793.662 		"/>
	</g>
</g>
<g>
	<path fill="#EEC11A" d="M2307.329,3457.857c0,474.166-384.391,858.562-858.563,858.562c-474.17,0-858.558-384.396-858.558-858.562
		c0-474.17,384.388-858.561,858.558-858.561C1922.937,2599.296,2307.329,2983.687,2307.329,3457.857z"/>
	<g>
		<g>
			<path fill="#FFFFFF" d="M1160.301,3200.719c0,59.885-48.555,108.442-108.441,108.442c-59.89,0-108.45-48.557-108.45-108.442
				c0-59.901,48.559-108.451,108.45-108.451C1111.745,3092.269,1160.301,3140.818,1160.301,3200.719z"/>
			<path fill="#FFFFFF" d="M1954.134,3200.719c0,59.885-48.557,108.442-108.456,108.442c-59.883,0-108.436-48.557-108.436-108.442
				c0-59.901,48.553-108.451,108.436-108.451C1905.577,3092.269,1954.134,3140.818,1954.134,3200.719z"/>
		</g>
	</g>
	<path fill="#FFFFFF" d="M1438.283,3957.382c-12.27,0-24.543-0.414-36.823-1.253c-124.258-8.418-249.28-61.404-361.523-153.213
		c-84.098-68.778-131.539-134.853-133.528-137.63l59.971-42.752c0.443,0.61,44.865,62.156,121.972,124.835
		c69.766,56.699,181.665,126.207,318.656,135.321c176.39,11.729,354.869-77.083,530.438-263.975l53.677,50.429
		C1811.304,3860.56,1625.502,3957.382,1438.283,3957.382z"/>
</g>
<path fill="none" d="M4505.466,3196.37L4505.466,3196.37c1.131,38.349,2.346,79.593,3.626,123.015
	C4507.875,3244.698,4505.466,3196.37,4505.466,3196.37z"/>
<path fill="#EAAD7F" d="M3013.118,3074.292c92.26,199.434,180.762,123.216,196.801,16.294c-5.821,13.036-18.703,23.74-32.319,28.248
	c-18.647,6.265-41.469-0.354-52.996-16.445c-123.006-150.927-120.017-303.755-290.71-298.763
	c-15.595,0.466-30.653,4.167-44.354,10.588l0,0C2845.361,2824.854,2909.264,2849.798,3013.118,3074.292z"/>
<g>
	<path fill="#F9BB88" d="M4258.84,3498.337c-44.345-512.732-780.761-626.367-780.761-626.367s-3.572-975.289-56.805-1023.902
		c-24.712-14.027-53.415-21.698-83.798-20.805c-88.328,2.604-158.803,77.22-156.203,165.698l3.037,102.793l25.427,862.95
		l3.42,116.321c0.159,5.382-1.039,10.637-3.237,15.561c-16.039,106.922-104.541,183.14-196.801-16.294
		c-103.854-224.495-167.756-249.438-223.579-260.078l0,0c-21.105,9.891-38.98,26.252-50.562,47.311
		c-18.768,34.786-18.194,76.997,1.995,110.991l380.056,758.584l0.098,0.255c0,0,73.673,177.177,150.338,300.012l5.808,11.593
		c3.217,5.42,7.022,10.37,11.304,14.794c23.609,34.919,47.003,63.069,68.124,77.692c94.862,65.673,51.071,349.527,51.071,357.697
		c0,5.4,620.831,1.879,836.775,0.49C4258.736,4352.629,4295.279,3919.653,4258.84,3498.337z"/>
	<path fill="#EAAD7F" d="M4509.34,3319.385c-1.281-43.422-2.62-84.666-3.751-123.015c-4.848-164.514-8.184-275.64-8.184-275.64
		c-2.625-88.454-77.072-158.792-165.718-156.204c-84.859,2.53-151.153,71.788-154.35,155.271c-0.921-0.159-1.588-0.449-2.192-0.622
		l-4.416-149.892c-2.6-88.478-77.098-158.84-165.751-156.221c-88.288,2.623-158.811,77.21-156.203,165.719l-4.73-160.992
		c-2.631-88.466-77.008-158.812-165.7-156.194c-88.319,2.619-158.834,77.212-156.252,165.718l-18.964-643.82
		c-1.704-58.177-34.43-108.506-81.854-135.425c53.233,48.613,56.805,1023.902,56.805,1023.902s736.417,113.635,780.761,626.367
		c36.439,421.315-0.104,854.292-14.294,995.296c45.46-0.292,72.996-0.49,72.996-0.49s103.071-343.442,149.343-554.079
		c1.39-6.155,2.985-12.406,4.291-18.75c9.685-45.867,16.283-84.158,17.917-109.305c0-0.002,0-0.003,0-0.005
		C4510.333,3641.662,4511.37,3443.893,4509.34,3319.385z"/>
</g>
<g>
	<path fill="#3581A1" d="M4393.379,4316.418h-38.259v327.99c0,31.205-25.297,56.501-56.502,56.501h-949.928v62.768
		c0,31.205,25.297,56.5,56.503,56.5h988.187c31.205,0,56.502-25.295,56.502-56.5v-390.756
		C4449.881,4341.716,4424.584,4316.418,4393.379,4316.418z"/>
	<path fill="#3F94B2" d="M4355.12,4644.409v-327.99h-949.928c-31.206,0-56.503,25.297-56.503,56.503v327.988h949.928
		C4329.823,4700.91,4355.12,4675.613,4355.12,4644.409z"/>
</g>
<g>
	<circle fill="#C3C8C9" cx="3506.383" cy="4529.004" r="103.005"/>
	<circle fill="#FFFFFF" cx="3506.383" cy="4529.004" r="79.77"/>
	<g>
		<g>
			<circle fill="#5D5D5D" cx="3479.793" cy="4504.742" r="12.178"/>
			<circle fill="#5D5D5D" cx="3532.972" cy="4504.742" r="12.178"/>
		</g>
		<g>
			<circle fill="#5D5D5D" cx="3479.793" cy="4553.266" r="12.178"/>
			<circle fill="#5D5D5D" cx="3532.972" cy="4553.266" r="12.178"/>
		</g>
	</g>
</g>
</svg>
